<?xml version="1.0" standalone="no"?>
<!DOCTYPE svg PUBLIC "-//W3C//DTD SVG 1.1//EN" "http://www.w3.org/Graphics/SVG/1.1/DTD/svg11.dtd">
<svg xmlns="http://www.w3.org/2000/svg">
<defs >
<font id="Bitter" horiz-adv-x="568" ><font-face
    font-family="Bitter Thin Thin"
    units-per-em="1000"
    panose-1="0 0 0 0 0 0 0 0 0 0"
    ascent="935"
    descent="-265"
    alphabetic="0" />
<glyph unicode=" " horiz-adv-x="210" />
<glyph unicode="!" horiz-adv-x="329" d="M146 201L221 692H244L163 203L146 201ZM124 0Q114 0 109 6T103 23Q103 37 112 44T131 52Q139 52 145 47T152 29Q152 16 144 8T124 0Z" />
<glyph unicode="&quot;" horiz-adv-x="323" d="M138 554L164 762H193L154 554H138ZM262 554L288 762H317L278 554H262Z" />
<glyph unicode="#" horiz-adv-x="612" d="M102 498H567L565 480H99L102 498ZM23 230H488L486 212H20L23 230ZM270 692H289L85 0H66L270 692ZM496 692H516L312 0H293L496 692Z" />
<glyph unicode="$" horiz-adv-x="603" d="M236 0Q193 0 149 10T65 42L92 181H106L97 47L94 56Q129 38 166 30T241 21Q303 21 354 42T437 104T468 202Q468 244 451 270T406 312T345 339T278 361T216 388T171 432T154 504Q154 564 186 606T271 670T388 692Q429 692
470 683T549 653L522 516H508L521 647L528 638Q496 656 460 664T388 673Q331 673 283 653T205 596T175 505Q175 464 192 440T237 400T298 375T365 354T427 326T472 280T489 205Q489 138 453 93T360 24T236 0ZM226 -144L251 14L271 15L246 -144H226ZM356 678L379
824H399L376 679L356 678Z" />
<glyph unicode="%" horiz-adv-x="792" d="M120 -6L677 698H700L143 -6H120ZM235 352Q173 352 146 387T118 485Q118 543 139 591T201 669T304 698Q366 698 393 665T420 570Q420 514 399 464T337 383T235 352ZM238 371Q293 371 329 400T382 475T400 570Q400 626
377 652T302 679Q247 679 211 652T156 581T138 487Q138 430 162 401T238 371ZM516 -6Q454 -6 427 29T399 127Q399 185 420 233T482 311T585 340Q647 340 674 307T701 212Q701 156 680 106T618 25T516 -6ZM519 13Q574 13 610 42T663 117T681 212Q681 268 658 294T583
321Q528 321 492 294T437 223T419 129Q419 72 443 43T519 13Z" />
<glyph unicode="&amp;" horiz-adv-x="699" d="M294 -6Q208 -6 157 36T105 160Q105 218 131 264T202 339T305 373V372Q234 383 204 421T174 512Q174 570 204 611T289 675T417 698Q462 698 504 690T585 665L561 537H546L556 661L560 654Q490 678 415 678Q312 678
254 634T195 514Q195 447 242 415T378 383H650L647 368L555 354L563 362L539 208Q528 136 494 89T409 18T294 -6ZM296 13Q382 13 442 60T518 205L544 370L550 363H365Q296 363 242 339T157 269T126 163Q126 88 172 51T296 13Z" />
<glyph unicode="&apos;" horiz-adv-x="199" d="M138 554L164 762H193L154 554H138Z" />
<glyph unicode="(" horiz-adv-x="277" d="M307 837Q234 757 179 664T94 469T63 262Q63 174 87 83T160 -91L146 -102Q94 -19 69 75T43 264Q43 373 75 477T164 675T296 848L307 837Z" />
<glyph unicode=")" horiz-adv-x="277" d="M5 -93Q79 -13 133 80T218 275T249 482Q249 571 226 662T152 835L166 846Q219 763 244 669T269 480Q269 372 237 268T149 69T16 -104L5 -93Z" />
<glyph unicode="*" horiz-adv-x="466" d="M318 479L256 597L261 610L272 608L339 495L318 479ZM157 477L140 492L244 609L256 610V597L157 477ZM244 609L119 645L130 670L252 626L255 615L244 609ZM260 618L253 626L268 761L292 762L270 626L260 618ZM272 608L263
615L270 626L400 670L404 646L272 608Z" />
<glyph unicode="+" horiz-adv-x="559" d="M294 358L284 349L321 583H339L303 349L295 358H515L512 339H292L302 348L265 114H247L284 348L291 339H71L74 358H294Z" />
<glyph unicode="," horiz-adv-x="164" d="M17 24Q17 33 21 39T31 49T43 52Q53 52 59 45T66 27Q66 16 58 -6T30 -56T-23 -118L-33 -107Q-9 -78 3 -58T20 -24T25 -6Q25 0 23 3T19 12T17 24Z" />
<glyph unicode="-" horiz-adv-x="409" d="M336 303L333 284H84L87 303H336Z" />
<glyph unicode="." horiz-adv-x="169" d="M44 0Q34 0 29 6T23 23Q23 37 32 44T51 52Q59 52 65 47T72 29Q72 16 64 8T44 0Z" />
<glyph unicode="/" horiz-adv-x="264" d="M342 797L-28 -74H-46L324 797H342Z" />
<glyph unicode="0" horiz-adv-x="633" d="M268 -6Q211 -6 172 18T112 96T91 233Q91 294 101 359T134 484T192 593T279 669T397 698Q479 698 524 648T569 475Q569 415 559 349T527 220T470 106T384 25T268 -6ZM269 14Q331 14 377 43T456 122T509 232T538 356T548
476Q548 555 530 598T477 660T397 678Q333 678 286 651T205 576T152 471T122 352T112 233Q112 115 153 65T269 14Z" />
<glyph unicode="1" horiz-adv-x="372" d="M187 23L182 31L311 17L309 0H16L18 17L176 31L168 23L271 673L276 669L82 561L76 576L279 695H293L187 23Z" />
<glyph unicode="2" horiz-adv-x="512" d="M11 0L14 21Q73 73 135 127T255 237T357 346T428 454T455 557Q455 618 415 648T306 678Q270 678 228 671T141 649L147 657L116 526H102L116 659Q168 678 216 688T308 698Q357 698 395 684T454 639T476 561Q476 508 450
454T380 344T279 234T160 124T39 16L38 21H418L414 0H11Z" />
<glyph unicode="3" horiz-adv-x="541" d="M197 -5Q151 -5 106 9T22 52L34 71Q110 15 201 15Q266 15 316 42T394 115T423 220Q423 260 407 291T352 340T247 358H178L181 378H254Q351 378 405 428T460 558Q460 627 421 653T322 679Q285 679 244 672T161 651L168
659L137 527H122L136 661Q186 678 235 688T327 698Q372 698 407 685T461 641T481 559Q481 476 431 427T300 367L299 368Q374 362 408 325T443 223Q443 158 411 106T324 25T197 -5Z" />
<glyph unicode="4" horiz-adv-x="534" d="M350 203L355 196H13L11 213L424 701L446 692L370 209L364 216H503L500 196H361L369 203L337 0H318L350 203ZM359 216L351 209L426 682L429 681L32 210L30 216H359Z" />
<glyph unicode="5" horiz-adv-x="510" d="M189 -6Q151 -6 110 5T28 39L38 59Q78 36 117 26T191 15Q259 15 311 47T393 131T423 241Q423 294 401 322T342 363T263 378T181 381H122L185 692H489L486 672H194L202 679L146 394L140 401H195Q223 401 256 400T322 391T383
367T427 320T444 242Q444 176 411 120T321 29T189 -6Z" />
<glyph unicode="6" horiz-adv-x="566" d="M102 300L104 321Q163 365 222 384T333 404Q380 404 418 388T478 336T500 243Q500 176 469 119T383 28T256 -6Q214 -6 181 7T125 48T91 118T79 217Q79 280 93 347T137 476T210 589T312 668T443 698Q488 698 534 686L528
667Q505 673 483 675T442 678Q375 678 321 651T225 577T156 471T114 347T100 220Q100 149 118 103T171 36T258 14Q325 14 374 45T451 129T479 242Q479 318 439 351T334 385Q280 385 219 364T102 300Z" />
<glyph unicode="7" horiz-adv-x="454" d="M494 674L116 0H93L475 678L480 672H119L128 679L92 559H77L98 692H497L494 674Z" />
<glyph unicode="8" horiz-adv-x="587" d="M246 -5Q197 -5 157 12T93 65T69 153Q69 213 99 257T177 331T280 377L298 369Q247 352 200 324T122 255T91 156Q91 90 133 52T248 14Q307 14 356 38T435 104T465 198Q465 245 442 273T381 318T302 350T223 383T163 430T139
509Q139 551 157 585T207 645T281 684T369 698Q416 698 454 683T516 637T539 556Q539 498 509 459T430 395T328 357L310 364Q361 379 409 403T488 464T519 554Q519 599 498 626T443 666T367 679Q310 679 263 657T188 598T159 511Q159 466 182 439T243 394T323 363T402
331T463 282T487 201Q487 157 468 120T415 54T338 11T246 -5Z" />
<glyph unicode="9" horiz-adv-x="567" d="M491 397L489 379Q431 336 371 315T258 293Q211 293 173 310T114 362T92 452Q92 499 109 543T158 622T236 677T339 698Q381 698 413 686T468 647T502 579T514 478Q514 409 498 340T451 209T376 99T274 23T149 -5Q127 -5
105 -2T59 7L65 26Q88 20 110 18T150 15Q216 15 270 41T365 114T435 220T478 344T493 475Q493 547 475 591T423 657T336 678Q265 678 215 645T139 559T113 451Q113 376 155 344T260 312Q314 312 374 333T491 397Z" />
<glyph unicode=":" horiz-adv-x="169" d="M106 390Q96 390 91 396T85 413Q85 427 94 434T113 442Q121 442 127 437T134 419Q134 406 126 398T106 390ZM44 0Q34 0 29 6T23 23Q23 37 32 44T51 52Q59 52 65 47T72 29Q72 16 64 8T44 0Z" />
<glyph unicode=";" horiz-adv-x="170" d="M23 24Q23 33 27 39T37 49T49 52Q59 52 65 45T72 27Q72 16 64 -6T36 -56T-17 -118L-27 -107Q-3 -78 9 -58T26 -24T31 -6Q31 0 29 3T25 12T23 24ZM106 390Q96 390 91 396T85 413Q85 427 94 434T113 442Q121 442 127 437T134
419Q134 406 126 398T106 390Z" />
<glyph unicode="&lt;" horiz-adv-x="525" d="M450 168L78 338L81 359L505 541L511 523L93 344L91 352L458 185L450 168Z" />
<glyph unicode="=" horiz-adv-x="724" d="M600 445L597 426H180L183 445H600ZM828 527L825 508H408L411 527H828Z" />
<glyph unicode="&gt;" horiz-adv-x="525" d="M105 541L477 371L474 350L50 168L44 186L462 365L464 357L97 524L105 541Z" />
<glyph unicode="?" horiz-adv-x="368" d="M106 214Q108 225 109 235T112 255Q120 308 146 344T205 409T269 464T322 521T343 594Q343 641 314 660T241 679Q215 679 185 674T125 657L120 674Q152 686 183 692T242 698Q277 698 304 688T348 656T364 597Q364 558
349 529T310 475T258 428T204 381T159 325T132 253Q131 245 129 234T125 212L106 214ZM86 0Q76 0 71 6T65 23Q65 37 74 44T93 52Q101 52 107 47T114 29Q114 16 106 8T86 0Z" />
<glyph unicode="@" horiz-adv-x="859" d="M350 -105Q269 -105 213 -70T126 30T96 186Q96 275 124 356T206 500T334 599T502 635Q589 635 650 601T744 504T777 355Q777 304 766 254T732 161T677 94T600 68Q554 68 535 102T525 205L544 239Q522 179 490 141T423
86T359 68Q317 68 288 102T258 212Q258 283 285 342T360 436T468 472Q492 472 519 465T577 438L562 436L576 466H587L544 196Q537 147 549 117T603 87Q640 87 668 110T716 173T746 258T756 351Q756 411 739 460T689 543T608 596T498 615Q410 615 340 580T220 485T144
348T117 188Q117 59 179 -13T354 -85Q391 -85 431 -77T511 -53L517 -70Q476 -87 433 -96T350 -105ZM361 87Q385 87 412 101T466 143T513 217T544 324L561 433L574 421Q546 436 520 444T467 453Q413 453 371 421T304 333T279 212Q279 147 302 117T361 87Z" />
<glyph unicode="A" horiz-adv-x="662" d="M535 22L528 29L616 15L614 0H394L397 15L519 29L514 22L481 213L488 206H158L168 213L71 22L67 29L184 15L181 0H-35L-32 15L59 29L50 22L395 691L415 693L535 22ZM171 219L167 225H485L480 219L400 672H404L171 219Z" />
<glyph unicode="B" horiz-adv-x="629" d="M370 354L373 358Q453 355 491 317T530 211Q530 146 500 99T413 26T278 0H22L24 15L129 29L120 21L223 671L229 663L128 672L130 687L247 692H385Q421 692 449 686T498 668T532 639T551 600T558 552Q558 500 535 459T470
392T370 354ZM379 673H236L244 678L193 355L188 364H302Q355 364 398 377T473 414T520 472T537 549Q537 588 522 615T472 658T379 673ZM280 19Q386 19 447 70T509 210Q509 251 493 281T443 328T353 345H185L193 355L139 15L133 19H280Z" />
<glyph unicode="C" horiz-adv-x="631" d="M310 -6Q249 -6 198 23T117 114T86 267Q86 347 110 424T180 563T288 661T429 698Q470 698 520 687T619 650L594 516H579L590 646L596 638Q556 656 509 667T423 678Q351 678 293 642T193 547T129 414T107 267Q107 181 135
125T210 42T314 14Q367 14 423 37T530 109L541 93Q486 44 426 19T310 -6Z" />
<glyph unicode="D" horiz-adv-x="718" d="M393 692Q474 692 534 665T626 581T659 429Q659 347 634 270T560 132T445 36T295 0H22L24 15L129 29L121 21L224 671L229 663L128 672L130 687L275 692H393ZM297 19Q358 19 411 41T505 103T577 194T622 305T638 426Q638
512 608 566T522 647T387 673H236L244 678L139 14L133 19H297Z" />
<glyph unicode="E" horiz-adv-x="617" d="M499 141H513L491 0H22L24 15L129 29L120 21L223 671L229 663L128 672L130 687L247 692H588L567 556H552L557 680L564 673H236L244 678L193 356L188 365H471L468 346H185L193 355L139 16L133 19H473L464 12L499 141Z" />
<glyph unicode="F" horiz-adv-x="551" d="M22 0L24 15L129 29L120 22L223 672L229 663L128 672L130 687L247 692H578L557 556H542L547 680L553 673H236L244 678L190 339L185 353H453L450 334H181L190 339L140 21L135 29L258 15L256 0H22Z" />
<glyph unicode="G" horiz-adv-x="738" d="M331 -6Q258 -6 203 21T118 109T87 268Q87 361 114 439T192 576T309 666T457 698Q505 698 556 686T662 650L637 516H622L631 646L636 637Q590 658 545 668T458 678Q383 678 319 648T208 562T134 433T108 270Q108 179 136
123T216 40T336 14Q385 14 439 26T553 60L547 51L585 294L591 287L490 295L492 310L699 315L697 300L597 286L604 294L565 45Q501 20 443 7T331 -6Z" />
<glyph unicode="H" horiz-adv-x="774" d="M22 0L24 15L130 29L121 21L224 671L230 663L128 672L130 687L343 692L341 677L236 663L244 671L193 352L188 361H618L609 352L660 671L665 663L564 672L566 687L780 692L778 677L671 663L680 671L577 21L571 29L672 15L670
0H458L460 15L565 29L557 21L609 349L615 342H185L193 349L141 21L136 29L236 15L234 0H22Z" />
<glyph unicode="I" horiz-adv-x="337" d="M341 677L236 663L244 671L141 21L136 29L236 15L234 0H22L24 15L130 29L121 21L224 671L230 663L128 672L130 687L343 692L341 677Z" />
<glyph unicode="J" horiz-adv-x="324" d="M119 687L340 692L338 677L233 663L241 671L136 9Q134 -6 128 -28T107 -73T65 -109T-7 -124Q-25 -124 -46 -121L-43 -103Q-35 -104 -27 -104T-9 -105Q30 -105 53 -93T90 -64T108 -27T116 8L221 671L228 663L117 672L119 687Z" />
<glyph unicode="K" horiz-adv-x="676" d="M523 23L514 28L618 15L616 0H513L325 350L336 345H186L194 355L141 21L136 29L236 15L234 0H22L24 15L130 29L121 21L224 672L230 663L128 671L130 686L343 692L341 677L236 663L244 672L194 356L189 364H334L321 358L570
670L574 664L473 672L475 687L683 692L681 677L580 663L592 670L339 353V364L523 23Z" />
<glyph unicode="L" horiz-adv-x="523" d="M458 145H472L449 0H22L24 15L130 29L121 21L224 670L230 663L128 672L130 687L357 692L355 677L236 663L244 671L139 9L134 19H432L423 12L458 145Z" />
<glyph unicode="M" horiz-adv-x="884" d="M888 677L781 663L791 671L688 21L682 29L783 15L781 0H569L571 15L676 29L668 21L770 664L772 661L436 182L416 178L239 664L242 665L140 21L135 29L236 15L234 0H22L24 15L130 29L121 21L224 671L230 663L128 672L130
687L251 692L431 197H425L767 687L890 692L888 677Z" />
<glyph unicode="N" horiz-adv-x="781" d="M586 687L798 692L796 677L691 663L699 671L593 0H575L239 669L243 670L140 21L135 29L235 15L233 0H22L24 15L129 29L121 21L224 671L229 663L128 672L130 687L250 692L582 31L579 30L680 672L685 663L584 672L586 687Z" />
<glyph unicode="O" horiz-adv-x="736" d="M322 -6Q258 -6 205 21T119 109T86 264Q86 330 102 393T150 512T225 609T323 674T441 698Q506 698 560 670T646 583T678 430Q678 366 662 303T615 185T540 86T442 19T322 -6ZM324 14Q383 14 434 37T526 100T596 192T641
305T657 426Q657 513 628 568T549 651T438 678Q379 678 328 655T237 592T167 500T123 387T107 266Q107 180 136 124T214 41T324 14Z" />
<glyph unicode="P" horiz-adv-x="566" d="M282 285H176L184 292L141 21L136 29L260 15L258 0H22L24 15L130 29L121 21L224 671L230 663L128 672L130 687L248 692H377Q469 692 513 652T557 533Q557 462 523 406T426 317T282 285ZM374 673H237L245 680L185 297L179
304H284Q360 304 416 334T504 415T536 531Q536 602 495 637T374 673Z" />
<glyph unicode="Q" horiz-adv-x="738" d="M586 -155Q553 -155 517 -138T433 -87T311 -2L321 -6Q258 -6 205 21T119 108T86 263Q86 329 102 392T150 511T225 608T323 674T441 698Q506 698 560 670T646 583T678 430Q678 353 655 278T587 140T481 39T343 -5L347 -2Q410
-45 452 -74T525 -119T586 -134Q610 -134 636 -124T698 -94L709 -110Q671 -133 642 -144T586 -155ZM324 14Q383 14 434 37T526 100T596 192T641 305T657 426Q657 513 628 568T549 651T438 678Q379 678 328 655T237 592T167 500T123 387T107 266Q107 180 136 124T214
41T324 14Z" />
<glyph unicode="R" horiz-adv-x="627" d="M22 0L24 15L129 29L121 21L224 671L229 663L128 672L130 687L248 692H372Q555 692 555 551Q555 492 526 444T446 367T330 333L322 336Q372 332 394 297T437 202L500 22L493 29L565 15L563 0H484L418 198Q398 258 378
285T330 319T259 327H183L191 334L141 21L136 29L260 15L258 0H22ZM192 339L187 346H282Q359 346 415 372T503 443T534 546Q534 594 515 620T469 657T414 670T368 673H237L245 680L192 339Z" />
<glyph unicode="S" horiz-adv-x="575" d="M222 -6Q179 -6 135 4T51 36L78 175H92L83 41L80 50Q115 32 152 24T227 15Q287 15 338 36T422 96T454 193Q454 242 432 271T373 318T297 350T221 382T163 431T140 512Q140 573 173 614T259 676T374 698Q415 698 456 689T535
659L508 522H494L507 653L514 644Q482 662 446 670T374 679Q319 679 271 660T192 604T161 514Q161 468 183 441T242 396T318 365T394 331T452 281T475 197Q475 131 439 86T346 17T222 -6Z" />
<glyph unicode="T" horiz-adv-x="538" d="M107 0L109 15L230 29L221 21L325 680L332 673H120L129 680L95 552H80L102 692H572L550 552H536L541 680L548 673H337L345 680L241 21L236 29L350 15L348 0H107Z" />
<glyph unicode="U" horiz-adv-x="736" d="M550 687L763 692L761 677L654 663L663 671L597 253Q584 171 554 113T469 25T324 -6Q220 -6 174 38T128 168Q128 186 129 205T135 246L203 671L209 663L107 672L109 687L322 692L320 677L215 663L223 671L155 244Q152
223 150 204T148 168Q148 89 188 51T324 13Q409 13 460 41T538 124T577 255L643 671L649 664L548 672L550 687Z" />
<glyph unicode="V" horiz-adv-x="659" d="M267 -2L163 670L170 663L72 672L75 687L302 692L300 677L179 663L183 670L282 19H278L608 670L610 664L493 672L495 687L721 692L719 677L618 663L628 670L286 -2H267Z" />
<glyph unicode="W" horiz-adv-x="991" d="M828 687L1051 692L1048 677L949 663L958 670L669 -2H648L558 662H562L253 -2H231L165 671L172 663L73 672L76 687L303 692L301 677L179 663L185 671L248 21L245 22L555 689L573 692L665 24H661L938 670L943 664L826 672L828
687Z" />
<glyph unicode="X" horiz-adv-x="659" d="M511 21L501 28L595 15L593 0H376L378 15L494 28L490 21L340 349H348L95 21L93 28L205 15L202 0H-15L-12 15L87 28L74 21L339 365V353L192 670L201 663L106 672L108 687L321 692L319 677L209 663L213 670L351 370H342L577
670L580 663L473 672L475 687L685 692L683 677L585 663L597 670L351 355L352 367L511 21Z" />
<glyph unicode="Y" horiz-adv-x="610" d="M158 0L160 15L265 29L257 21L296 268L298 251L159 670L168 663L70 672L73 687L299 692L297 677L174 663L179 670L310 275H304L562 670L565 664L448 672L450 687L673 692L671 677L571 663L582 670L309 251L314 268L276
21L271 29L371 15L369 0H158Z" />
<glyph unicode="Z" horiz-adv-x="576" d="M16 0V16L550 678L552 672H160L170 679L136 556H122L144 692H572V676L41 14L38 20H455L441 13L480 137H495L469 0H16Z" />
<glyph unicode="[" horiz-adv-x="314" d="M35 -94L183 838L358 833L356 817L198 815L58 -71L215 -73L212 -89L35 -94Z" />
<glyph unicode="\" horiz-adv-x="270" d="M90 797H108L212 -74H194L90 797Z" />
<glyph unicode="]" horiz-adv-x="314" d="M314 838L166 -94L-9 -89L-7 -73L151 -71L291 815L134 817L137 833L314 838Z" />
<glyph unicode="^" horiz-adv-x="504" d="M81 522L307 844H321L443 522H424L307 830H316L101 522H81Z" />
<glyph unicode="_" horiz-adv-x="478" d="M425 -80L422 -99H-58L-55 -80H425Z" />
<glyph unicode="`" horiz-adv-x="382" d="M196 772L344 647L334 634L177 748L196 772Z" />
<glyph unicode="a" horiz-adv-x="579" d="M192 -6Q155 -6 125 14T76 76T58 185Q58 255 79 317T137 426T226 501T337 528Q369 528 405 519T481 485L473 482L486 522H500L420 19L413 29L506 17L504 2L397 -2L432 220L438 221Q409 141 366 91T277 17T192 -6ZM193
13Q226 13 265 32T341 90T407 190T450 335L473 479L478 467Q441 489 406 499T336 509Q280 509 233 484T152 414T98 311T79 186Q79 95 112 54T193 13Z" />
<glyph unicode="b" d="M69 15L184 741L190 732L99 745L101 760L208 765L133 293L128 301Q158 382 200 432T289 505T375 528Q412 528 442 508T490 445T508 331Q508 230 470 154T363 36T201 -6Q140 -6 69 15ZM89 15L82 32Q114 22 145 17T205 12Q290 12 353 51T451
162T487 330Q487 428 454 468T374 509Q341 509 302 490T225 432T158 332T116 187L89 15Z" />
<glyph unicode="c" horiz-adv-x="476" d="M224 -6Q177 -6 140 15T80 81T58 197Q58 265 78 325T135 430T219 502T322 528Q354 528 389 518T458 486L440 382H422L426 488L430 479Q373 509 320 509Q268 509 224 484T148 415T97 316T79 198Q79 101 121 58T228 14Q263
14 302 26T380 63L389 47Q347 21 305 8T224 -6Z" />
<glyph unicode="d" horiz-adv-x="580" d="M192 -6Q155 -6 125 14T76 76T58 185Q58 255 79 317T137 426T226 501T337 528Q369 528 405 519T481 485L473 480L514 739L520 732L424 746L426 760L538 765L420 19L413 29L506 17L504 2L397 -2L432 220L438 221Q409 141
366 91T277 17T192 -6ZM193 13Q226 13 264 32T340 90T407 190T450 335L473 479L478 467Q441 489 406 499T336 509Q280 509 233 484T152 414T98 311T79 186Q79 95 112 54T193 13Z" />
<glyph unicode="e" horiz-adv-x="487" d="M228 -6Q179 -6 141 16T80 83T58 196Q58 258 76 317T130 423T214 499T325 528Q389 528 424 498T460 423Q460 380 429 346T347 287T236 249T118 236Q105 236 95 236T73 238L77 258Q88 257 100 256T126 255Q177 255 232
267T334 301T410 353T439 422Q439 460 408 484T322 509Q265 509 220 482T144 410T96 309T79 195Q79 102 121 58T230 13Q265 13 305 25T387 63L396 47Q352 21 309 8T228 -6Z" />
<glyph unicode="f" horiz-adv-x="287" d="M-58 -236Q-67 -236 -75 -236T-93 -234L-90 -216Q-88 -216 -81 -216T-64 -217Q-23 -217 2 -204T40 -171T59 -126T69 -77L161 505L167 499H74L76 513L170 518L162 511L178 613Q191 696 237 732T344 768Q358 768 374 767T406
760L399 741Q384 746 369 747T340 749Q286 749 248 716T198 612L182 510L176 518H329L326 499H173L181 504L89 -76Q86 -97 80 -124T59 -177T16 -219T-58 -236Z" />
<glyph unicode="g" horiz-adv-x="567" d="M207 -236Q172 -236 131 -228T44 -205L51 -184Q95 -200 135 -208T209 -217Q246 -217 276 -207T330 -174T369 -118T392 -37L433 221H438Q409 141 366 91T277 17T192 -6Q155 -6 125 14T76 76T58 185Q58 255 79 317T137 426T226
501T337 528Q369 528 405 519T481 485L473 483L486 522H500L412 -35Q404 -88 387 -126T343 -188T283 -224T207 -236ZM193 13Q226 13 264 32T340 90T407 190T450 335L473 479L478 467Q441 489 406 499T336 509Q280 509 233 484T152 414T98 311T79 186Q79 95 112
54T193 13Z" />
<glyph unicode="h" horiz-adv-x="581" d="M407 -2L465 361Q474 414 463 446T429 494T375 509Q341 509 302 490T226 432T160 332T117 187L87 0H67L185 742L191 732L100 745L102 760L209 765L134 302L129 301Q161 386 203 435T291 506T375 528Q412 528 440 511T481
456T485 360L431 22L426 29L516 17L514 2L407 -2Z" />
<glyph unicode="i" horiz-adv-x="263" d="M80 -2L160 502L168 492L75 505L77 520L184 525L104 22L99 29L189 17L187 2L80 -2ZM196 663Q186 663 180 670T173 689Q173 703 181 712T202 722Q213 722 219 715T225 696Q225 682 217 673T196 663Z" />
<glyph unicode="j" horiz-adv-x="249" d="M-94 -234L-91 -216Q-83 -217 -76 -217T-63 -217Q-1 -217 27 -187T68 -77L159 501L165 492L74 505L76 520L183 525L88 -75Q79 -131 62 -166T16 -219T-59 -236Q-69 -236 -77 -236T-94 -234ZM191 663Q181 663 175 670T168
689Q168 703 176 712T197 722Q208 722 214 715T220 696Q220 682 212 673T191 663Z" />
<glyph unicode="k" horiz-adv-x="516" d="M67 0L184 741L190 732L99 745L101 760L208 765L134 297L128 302H270L261 296L410 502L413 495L326 505L328 520L516 525L514 510L419 495L430 502L279 292L277 304L393 24L384 31L471 15L469 0H382L264 289L271 283H124L132
285L87 0H67Z" />
<glyph unicode="l" horiz-adv-x="250" d="M67 -2L185 741L191 732L100 745L102 760L209 765L91 22L86 29L176 17L174 2L67 -2Z" />
<glyph unicode="m" horiz-adv-x="910" d="M736 -2L794 361Q803 414 793 446T760 494T709 509Q676 509 638 490T564 431T500 331T458 187L428 0H408L466 361Q475 414 465 446T432 494T381 509Q349 509 311 490T237 431T172 331T130 187L100 0H80L160 502L166 492L75
505L77 520L184 525L147 302L142 301Q174 386 216 435T302 506T382 528Q416 528 443 511T483 456T486 360L476 298L470 301Q502 386 544 435T630 506T710 528Q744 528 771 511T811 456T814 360L759 19L752 29L845 17L843 2L736 -2Z" />
<glyph unicode="n" horiz-adv-x="594" d="M420 -2L478 361Q487 414 476 446T442 494T388 509Q354 509 315 490T239 432T173 332T130 187L100 0H80L160 502L166 492L75 505L77 520L184 525L147 302L142 301Q174 386 216 435T304 506T388 528Q425 528 453 511T495
456T498 360L443 19L436 29L529 17L527 2L420 -2Z" />
<glyph unicode="o" horiz-adv-x="552" d="M319 528Q371 528 409 506T469 437T491 318Q491 258 475 200T426 96T345 22T234 -6Q184 -6 145 16T84 85T62 205Q62 266 78 323T127 427T208 500T319 528ZM316 509Q260 509 217 484T144 415T99 318T83 208Q83 114 123
64T238 13Q293 13 336 38T409 107T454 204T470 315Q470 410 431 459T316 509Z" />
<glyph unicode="p" horiz-adv-x="581" d="M-42 -230L-40 -215L54 -201L47 -209L160 502L168 492L75 505L77 520L184 525L147 293L142 301Q172 382 214 432T303 505T388 528Q425 528 455 508T504 446T522 337Q522 240 490 167T399 51T260 -3T83 15L103 16L67 -209L59
-201L164 -215L162 -230H-42ZM103 15L96 32Q187 5 261 15T389 66T472 176T501 336Q501 428 468 468T387 509Q354 509 315 490T239 432T172 332T130 187L103 15Z" />
<glyph unicode="q" horiz-adv-x="567" d="M260 -230L262 -215L372 -201L364 -209L398 3L432 220L438 221Q409 141 366 91T277 17T192 -6Q155 -6 125 14T76 76T58 185Q58 255 79 317T137 426T226 501T337 528Q369 528 405 519T481 485L473 482L486 522H500L384
-209L378 -201L468 -215L466 -230H260ZM193 13Q226 13 264 32T340 90T407 190T450 335L473 479L478 467Q441 489 406 499T336 509Q280 509 233 484T152 414T98 311T79 186Q79 95 112 54T193 13Z" />
<glyph unicode="r" horiz-adv-x="376" d="M80 0L160 502L166 492L75 505L77 520L184 525L147 302L143 300Q166 368 205 419T290 499T380 528Q397 528 410 524L391 410H374L380 516L385 508Q354 510 316 492T241 435T174 335T130 187L100 0H80Z" />
<glyph unicode="s" horiz-adv-x="472" d="M171 -6Q139 -6 103 -1T31 14L55 127H72L63 19L58 30Q85 22 115 18T172 13Q223 13 268 28T341 72T369 143Q369 179 350 200T299 236T233 263T167 290T117 329T97 391Q97 432 122 463T189 511T283 528Q317 528 353 521T426
500L409 411H393V500L400 489Q369 500 339 504T283 509Q238 509 201 495T141 454T118 392Q118 358 137 337T188 302T254 276T320 249T370 209T390 146Q390 101 363 67T286 14T171 -6Z" />
<glyph unicode="t" horiz-adv-x="320" d="M265 25Q236 9 210 2T163 -6Q131 -6 112 12T93 68Q93 76 93 81T95 92L161 510L166 503H61L63 517L170 522L162 515L182 642L202 643L182 515L176 522H329L326 503H172L181 510L115 95Q114 91 114 85T113 71Q113 40 127
27T165 13Q185 13 208 20T256 41L265 25Z" />
<glyph unicode="u" horiz-adv-x="594" d="M208 -6Q171 -7 142 10T101 65T97 162L151 502L156 492L66 505L68 520L175 525L117 161Q109 108 119 76T153 28T207 13Q241 13 280 32T356 90T423 190T465 335L495 522H515L436 22L431 29L521 17L519 2L412 -2L447 220L453
221Q423 139 381 90T293 18T208 -6Z" />
<glyph unicode="v" horiz-adv-x="476" d="M192 -2L92 503L100 497L31 505L34 520L107 525L206 23H204L445 503L448 498L366 505L368 520L521 525L519 510L453 497L466 503L211 -2H192Z" />
<glyph unicode="w" horiz-adv-x="736" d="M159 -2L101 503L109 497L35 505L38 520L116 525L175 6H169L396 522L424 524L486 14H484L701 503L703 498L625 505L627 520L776 525L774 510L708 497L721 503L494 -2H470L408 510L412 512L182 -2H159Z" />
<glyph unicode="x" horiz-adv-x="519" d="M-31 0L-29 14L68 28L55 21L251 274L258 280L450 520L531 525L529 510L446 497L458 503L267 266L261 260L60 0H-31ZM378 0L251 260L132 504L140 497L68 505L70 520L143 525L263 276L389 21L379 28L470 15L468 0H378Z" />
<glyph unicode="y" horiz-adv-x="479" d="M-50 -233L-47 -215Q-40 -216 -34 -216T-20 -217Q33 -217 69 -190T135 -109T198 20L196 7L95 503L103 497L29 505L32 520L111 525L211 29H206L447 503L451 498L369 505L371 520L526 525L524 510L456 497L468 503L209 -5Q191
-40 175 -73T140 -136T100 -188T50 -223T-16 -236Q-30 -236 -50 -233Z" />
<glyph unicode="z" horiz-adv-x="445" d="M369 116L352 1L6 0L8 15L406 511L410 504H115L126 513L99 419H84L100 522H427L425 506L29 11L27 18L336 19L325 10L355 116H369Z" />
<glyph unicode="{" horiz-adv-x="295" d="M143 -94Q109 -94 87 -85T58 -49T58 27L94 256Q102 303 88 332T22 362L25 382Q59 382 80 396T114 434T131 490L167 719Q174 764 188 790T226 827T289 838H318L316 822Q269 822 244 814T206 781T186 712L150 484Q142 432
123 407T82 375T37 368V376Q59 376 79 369T111 336T114 258L78 30Q71 -15 75 -38T103 -69T173 -78L170 -94H143Z" />
<glyph unicode="|" horiz-adv-x="341" d="M246 795H266L125 -91H106L246 795Z" />
<glyph unicode="}" horiz-adv-x="295" d="M187 838Q222 838 243 829T272 793T272 717L236 488Q229 442 242 412T308 382L305 362Q271 362 250 348T216 310T199 254L163 25Q156 -20 142 -46T104 -83T41 -94H12L14 -78Q61 -78 86 -69T124 -37T144 32L180 260Q189
313 207 337T249 369T293 376V368Q272 368 251 375T219 408T216 486L252 714Q259 759 255 782T228 814T157 822L160 838H187Z" />
<glyph unicode="~" horiz-adv-x="707" d="M473 302Q442 302 415 314T363 343T313 371T261 384Q237 384 211 371T153 319L139 330Q167 364 197 383T263 402Q294 402 321 390T373 361T423 333T476 320Q500 320 526 334T584 385L597 374Q568 338 537 320T473 302Z" />
<glyph unicode="&#xa0;" horiz-adv-x="210" />
<glyph unicode="&#xa1;" horiz-adv-x="329" d="M174 261L99 -230H76L157 259L174 261ZM196 462Q207 462 212 456T217 439Q217 426 209 418T189 410Q181 410 175 415T168 433Q168 447 177 454T196 462Z" />
<glyph unicode="&#xa2;" horiz-adv-x="576" d="M251 -20L272 118L277 109Q196 108 149 159T102 298Q102 356 120 409T172 505T252 573T355 602L348 593L370 731H387L365 594L357 603Q405 603 445 593T515 561L496 457H478L484 556Q455 572 423 578T366 584Q312
584 268 561T190 497T140 407T122 302Q122 224 163 177T278 129Q319 129 365 146T461 197L470 181Q419 146 373 129T284 109L290 118L268 -20H251Z" />
<glyph unicode="&#xa3;" horiz-adv-x="671" d="M48 0L50 15L147 33L132 27Q177 60 195 112T217 229T225 364L232 357H104L106 372L233 376L225 371Q225 475 242 548T306 659T447 698Q483 698 524 692T611 675L586 543H572L581 671L589 660Q508 678 448 678Q361
678 318 641T260 535T245 369L237 376H441L438 357H236L245 362Q243 287 237 219T210 99T146 19L142 22L494 19L484 11L519 142H533L510 0H48Z" />
<glyph unicode="&#xa4;" horiz-adv-x="654" d="M499 131L485 118L415 196L425 194Q403 172 373 159T307 146Q271 146 246 158T206 192L219 194L125 115L113 129L207 208L202 197Q193 212 189 230T185 269Q185 310 199 345T238 406L240 395L168 478L183 492L254
409L244 412Q267 434 297 447T365 460Q400 460 424 449T463 418L449 415L540 492L552 479L461 403L465 414Q484 385 484 341Q484 304 470 265T431 199L428 210L499 131ZM309 165Q355 165 389 190T443 255T463 337Q463 385 438 413T362 441Q312 441 277 415T224
351T206 272Q206 222 234 194T309 165Z" />
<glyph unicode="&#xa5;" horiz-adv-x="702" d="M168 261L171 280H342L339 269L206 670L215 663L117 672L120 687L346 692L344 677L221 663L226 670L357 275H351L609 670L612 664L495 672L497 687L720 692L718 677L618 663L629 670L368 270L367 280H536L533 261H168ZM205
0L207 15L311 29L304 21L327 167L329 161H153L156 180H520L517 161H339L345 167L323 21L317 29L418 15L416 0H205Z" />
<glyph unicode="&#xa6;" horiz-adv-x="340" d="M189 439L245 795H265L208 439H189ZM105 -91L161 265H181L124 -91H105Z" />
<glyph unicode="&#xa7;" horiz-adv-x="560" d="M179 -175Q150 -175 119 -170T57 -155L81 -42H97L88 -150L83 -141Q134 -156 183 -156Q259 -156 307 -115T356 -6Q356 28 339 53T295 98T238 137T181 176T137 223T120 285Q120 323 137 354T182 410T238 453L256 442Q231
427 204 404T159 352T141 288Q141 256 158 232T202 188T259 149T316 109T360 60T377 -4Q377 -58 352 -96T282 -154T179 -175ZM338 84L324 96Q347 113 370 137T408 192T424 255Q424 288 407 313T363 358T306 398T249 438T205 485T188 546Q188 595 212 628T277 680T371
698Q400 698 432 691T495 670L478 581H462L465 670L470 661Q445 669 419 674T369 679Q299 679 254 644T209 547Q209 515 226 491T270 448T327 409T384 369T428 321T445 255Q445 218 429 186T389 128T338 84Z" />
<glyph unicode="&#xa8;" horiz-adv-x="418" d="M190 663Q180 663 174 670T168 690Q168 704 176 713T196 722Q206 722 212 715T218 696Q218 683 210 673T190 663ZM359 663Q349 663 343 670T337 690Q337 704 345 713T365 722Q375 722 381 715T387 696Q387 683 379
673T359 663Z" />
<glyph unicode="&#xa9;" horiz-adv-x="913" d="M470 164Q406 164 362 210T317 343Q317 402 338 444T397 509T482 532Q535 532 591 504L589 422H572L564 499L572 493Q548 504 526 508T483 513Q418 513 378 468T338 344Q338 265 376 224T471 183Q500 183 531 194T594
229L605 214Q571 189 537 177T470 164ZM459 -6Q383 -6 319 19T209 91T138 200T112 338Q112 416 139 482T215 596T330 671T475 698Q552 698 617 672T729 600T803 490T830 353Q830 277 802 212T724 97T606 21T459 -6ZM461 13Q535 13 598 38T709 109T782 217T809 352Q809
447 766 520T646 636T473 679Q374 679 298 635T177 515T133 341Q133 246 174 172T290 56T461 13Z" />
<glyph unicode="&#xaa;" horiz-adv-x="470" d="M75 201L78 220H408L405 201H75ZM190 317Q149 317 120 349T90 453Q90 520 117 576T191 665T299 699Q323 699 349 692T407 668L401 666L411 694H424L364 335L356 344L426 335L424 322L344 320L370 478L378 479Q356
422 324 386T256 334T190 317ZM191 336Q224 336 264 359T337 433T384 561L401 663L405 650Q377 666 351 673T298 680Q244 680 202 649T135 567T110 454Q110 392 134 364T191 336Z" />
<glyph unicode="&#xab;" horiz-adv-x="432" d="M168 81L60 260L63 281L227 460L238 449L75 264L77 278L182 91L168 81ZM321 81L213 260L216 281L380 460L391 449L228 264L230 278L335 91L321 81Z" />
<glyph unicode="&#xac;" horiz-adv-x="684" d="M522 339L516 349L478 112H498L537 358H85L82 339H522Z" />
<glyph unicode="&#xad;" horiz-adv-x="399" d="M587 303L584 284H335L338 303H587Z" />
<glyph unicode="&#xae;" horiz-adv-x="756" d="M272 287V298L330 309L321 301V619L330 611L272 616V628L340 630H410Q468 630 498 609T529 547Q529 513 502 488T417 457V463Q449 459 465 442T496 395L545 298L537 307L578 298V287H528L476 392Q462 422 448 434T417
449T378 452H335L341 460V301L335 309L406 298V287H272ZM341 464L335 471H389Q448 471 478 491T508 547Q508 577 484 594T409 611H335L341 623V464ZM401 173Q319 174 256 209T159 306T124 450Q124 532 161 596T263 699T410 737Q494 737 558 702T659 604T696 460Q696
400 674 348T611 257T517 195T401 173ZM402 192Q480 192 542 227T640 322T676 459Q676 535 642 593T548 685T409 718Q332 718 272 684T179 589T145 451Q145 374 177 316T267 225T402 192Z" />
<glyph unicode="&#xaf;" horiz-adv-x="421" d="M391 702L388 681H167L170 702H391Z" />
<glyph unicode="&#xb0;" horiz-adv-x="414" d="M215 457Q164 457 135 486T106 569Q106 614 126 650T180 707T259 728Q310 728 339 699T368 616Q368 573 349 537T295 479T215 457ZM217 475Q258 475 287 495T333 547T349 616Q349 661 325 685T257 710Q216 710 186
691T140 639T124 571Q124 526 148 501T217 475Z" />
<glyph unicode="&#xb1;" horiz-adv-x="581" d="M311 393L299 387L334 608H353L319 387L312 393H520L517 374H308L318 383L282 159H263L298 382L307 374H100L103 393H311ZM469 67L466 48H49L52 67H469Z" />
<glyph unicode="&#xb2;" horiz-adv-x="334" d="M50 346L52 365Q139 442 198 498T288 599T318 683Q318 719 294 734T231 749Q209 749 184 745T133 731L136 737L119 661H107L116 743Q147 754 176 760T232 767Q278 767 308 748T338 686Q338 653 322 621T272 551T190
467T75 361L74 365H299L296 346H50Z" />
<glyph unicode="&#xb3;" horiz-adv-x="355" d="M168 342Q137 342 110 351T59 377L69 392Q91 376 116 368T168 360Q228 360 264 395T300 480Q300 515 278 536T198 558H150L152 575H202Q241 575 268 588T309 626T323 680Q323 718 301 733T241 749Q219 749 195 745T145
733L149 738L130 661H119L128 744Q160 755 190 760T246 766Q290 766 316 748T342 682Q342 636 316 605T241 566L239 567Q280 563 299 542T319 481Q319 440 300 409T246 360T168 342Z" />
<glyph unicode="&#xb4;" horiz-adv-x="360" d="M138 634L127 648L283 772L301 745L138 634Z" />
<glyph unicode="&#xb5;" horiz-adv-x="695" d="M113 -231L94 -230L210 501L215 492L125 505L127 520L234 525L176 161Q168 108 178 76T212 28T266 13Q300 13 339 32T415 90T482 190T524 335L554 522H574L494 19L487 29L580 17L578 2L471 -2L506 220L512 221Q482
139 439 90T351 18T267 -6Q221 -7 189 19T153 103L161 98Q156 49 148 -6T131 -118T113 -231Z" />
<glyph unicode="&#xb6;" horiz-adv-x="525" d="M51 -170L54 -155L159 -141L151 -149L233 371L248 353Q183 353 147 390T110 489Q110 546 134 592T202 665T302 692H520L518 677L411 663L421 671L287 -170H268L403 681L407 673L293 672L302 681L167 -170H51Z" />
<glyph unicode="&#xb7;" horiz-adv-x="169" d="M92 307Q82 307 77 313T71 330Q71 344 80 351T99 359Q107 359 113 354T120 336Q120 323 112 315T92 307Z" />
<glyph unicode="&#xb8;" horiz-adv-x="358" d="M96 -212Q80 -212 63 -208T28 -196L38 -179Q67 -192 97 -192Q129 -192 151 -178T174 -135Q174 -110 153 -99T89 -87L106 0H124L113 -68Q160 -72 177 -87T195 -129Q195 -154 182 -173T146 -202T96 -212Z" />
<glyph unicode="&#xb9;" horiz-adv-x="253" d="M162 363L157 369L237 360L235 346H53L55 360L151 369L145 363L205 746L211 744L95 675L90 688L213 766H226L162 363Z" />
<glyph unicode="&#xba;" horiz-adv-x="443" d="M232 317Q171 317 131 353T91 470Q91 514 103 555T141 628T203 679T290 698Q352 698 390 662T429 546Q429 489 407 437T341 351T232 317ZM53 201L56 220H369L366 201H53ZM232 336Q275 336 308 354T363 402T397 469T409
545Q409 610 378 644T288 679Q245 679 212 662T156 614T123 548T111 472Q111 406 142 371T232 336Z" />
<glyph unicode="&#xbb;" horiz-adv-x="432" d="M267 460L375 281L372 260L208 81L197 92L360 277L358 263L253 450L267 460ZM114 460L222 281L219 260L55 81L44 92L207 277L205 263L100 450L114 460Z" />
<glyph unicode="&#xbc;" horiz-adv-x="731" d="M190 293L185 299L265 290L263 276H81L83 290L179 299L173 293L233 676L239 674L123 605L118 618L241 696H254L190 293ZM96 -4L639 696H661L117 -4H96ZM561 121L566 115H360L359 131L606 424L626 419L580 127L576
133H658L655 115H572L579 121L560 0H542L561 121ZM569 133L562 127L607 409L611 408L375 126L374 133H569Z" />
<glyph unicode="&#xbd;" horiz-adv-x="743" d="M191 293L186 299L266 290L264 276H82L84 290L180 299L174 293L234 676L240 674L124 605L119 618L242 696H255L191 293ZM95 -4L638 696H660L116 -4H95ZM389 0L391 19Q478 96 537 152T627 253T657 337Q657 373 633
388T570 403Q548 403 523 399T472 385L475 391L458 315H446L455 397Q486 408 515 414T571 421Q617 421 647 402T677 340Q677 307 661 275T611 205T529 121T414 15L413 19H638L635 0H389Z" />
<glyph unicode="&#xbe;" horiz-adv-x="796" d="M179 272Q148 272 121 281T70 307L80 322Q102 306 127 298T179 290Q239 290 275 325T311 410Q311 445 289 466T209 488H161L163 505H213Q252 505 279 518T320 556T334 610Q334 648 312 663T252 679Q230 679 206 675T156
663L160 668L141 591H130L139 674Q171 685 201 690T257 696Q301 696 327 678T353 612Q353 566 327 535T252 496L250 497Q291 493 310 472T330 411Q330 370 311 339T257 290T179 272ZM161 -4L704 696H726L182 -4H161ZM626 121L631 115H425L424 131L671 424L691 419L645
127L641 133H723L720 115H637L644 121L625 0H607L626 121ZM634 133L627 127L672 409L676 408L440 126L439 133H634Z" />
<glyph unicode="&#xbf;" horiz-adv-x="386" d="M276 284Q275 273 274 263T270 243Q262 191 236 154T177 89T113 34T60 -23T39 -96Q39 -143 68 -162T141 -181Q167 -181 197 -175T257 -159L262 -176Q231 -188 200 -194T140 -200Q105 -200 78 -190T34 -158T18 -99Q18
-60 33 -31T72 23T124 70T178 117T223 173T250 245Q252 253 254 264T257 286L276 284ZM296 498Q307 498 312 492T317 475Q317 462 309 454T289 446Q281 446 275 451T268 469Q268 483 277 490T296 498Z" />
<glyph unicode="&#xc0;" horiz-adv-x="662" d="M535 22L528 29L616 15L614 0H394L397 15L519 29L514 22L481 213L488 206H158L168 213L71 22L67 29L184 15L181 0H-35L-32 15L59 29L50 22L395 691L415 693L535 22ZM171 219L167 225H485L480 219L400 672H404L171
219ZM494 747L308 840L325 867L502 762L494 747Z" />
<glyph unicode="&#xc1;" horiz-adv-x="662" d="M535 22L528 29L616 15L614 0H394L397 15L519 29L514 22L481 213L488 206H158L168 213L71 22L67 29L184 15L181 0H-35L-32 15L59 29L50 22L395 691L415 693L535 22ZM171 219L167 225H485L480 219L400 672H404L171
219ZM334 747L326 761L506 868L519 840L334 747Z" />
<glyph unicode="&#xc2;" horiz-adv-x="662" d="M535 22L528 29L616 15L614 0H394L397 15L519 29L514 22L481 213L488 206H158L168 213L71 22L67 29L184 15L181 0H-35L-32 15L59 29L50 22L395 691L415 693L535 22ZM171 219L167 225H485L480 219L400 672H404L171
219ZM291 742L282 755L424 862H439L552 755L539 742L424 837H432L291 742Z" />
<glyph unicode="&#xc3;" horiz-adv-x="662" d="M535 22L528 29L616 15L614 0H394L397 15L519 29L514 22L481 213L488 206H158L168 213L71 22L67 29L184 15L181 0H-35L-32 15L59 29L50 22L395 691L415 693L535 22ZM171 219L167 225H485L480 219L400 672H404L171
219ZM299 772L286 781Q306 813 326 826T368 839Q392 839 411 829T449 808T486 797Q520 797 551 842L563 833Q543 801 523 789T482 776Q459 776 441 786T405 807T365 818Q348 818 333 808T299 772Z" />
<glyph unicode="&#xc4;" horiz-adv-x="662" d="M535 22L528 29L616 15L614 0H394L397 15L519 29L514 22L481 213L488 206H158L168 213L71 22L67 29L184 15L181 0H-35L-32 15L59 29L50 22L395 691L415 693L535 22ZM171 219L167 225H485L480 219L400 672H404L171
219ZM336 772Q326 772 320 779T314 799Q314 813 322 822T342 831Q352 831 358 824T364 805Q364 792 356 782T336 772ZM505 772Q495 772 489 779T483 799Q483 813 491 822T511 831Q521 831 527 824T533 805Q533 792 525 782T505 772Z" />
<glyph unicode="&#xc5;" horiz-adv-x="662" d="M535 22L528 29L616 15L614 0H394L397 15L519 29L514 22L481 213L488 206H158L168 213L71 22L67 29L184 15L181 0H-35L-32 15L59 29L50 22L395 691L415 693L535 22ZM171 219L167 225H485L480 219L400 672H404L171
219ZM411 734Q387 734 368 748T348 794Q348 820 360 838T393 867T435 877Q459 877 478 863T498 817Q498 792 486 773T454 744T411 734ZM414 751Q443 751 461 771T479 816Q479 836 467 848T432 860Q404 860 386 841T367 795Q367 775 379 763T414 751Z" />
<glyph unicode="&#xc6;" horiz-adv-x="921" d="M-35 0L-33 15L66 29L55 22L496 671L499 664L405 672L408 687L556 692H891L870 556H856L861 680L867 673H545L553 680L503 358L497 365H774L771 346H494L502 353L448 12L442 19H776L768 12L802 141H817L794 0H331L333
15L438 29L430 21L463 233L469 226H208L219 232L76 22L73 29L187 15L185 0H-35ZM224 239L221 245H472L464 238L534 680L540 673H512L523 679L224 239Z" />
<glyph unicode="&#xc7;" horiz-adv-x="631" d="M292 -212Q276 -212 259 -208T224 -196L234 -179Q263 -192 293 -192Q325 -192 347 -178T370 -135Q370 -110 349 -99T285 -87L304 11H322L309 -68Q356 -72 373 -87T391 -129Q391 -154 378 -173T342 -202T292 -212ZM86
267Q86 347 110 424T180 563T288 661T429 698Q470 698 520 687T619 650L594 516H579L590 646L596 638Q556 656 509 667T423 678Q351 678 293 642T193 547T129 414T107 267Q107 181 135 125T210 42T314 14Q367 14 423 37T530 109L541 93Q486 44 426 19T310 -6Q249
-6 198 23T117 114T86 267Z" />
<glyph unicode="&#xc8;" horiz-adv-x="617" d="M499 141H513L491 0H22L24 15L129 29L120 21L223 671L229 663L128 672L130 687L247 692H588L567 556H552L557 680L564 673H236L244 678L193 356L188 365H471L468 346H185L193 355L139 16L133 19H473L464 12L499 141ZM476
747L290 840L307 867L484 762L476 747Z" />
<glyph unicode="&#xc9;" horiz-adv-x="617" d="M499 141H513L491 0H22L24 15L129 29L120 21L223 671L229 663L128 672L130 687L247 692H588L567 556H552L557 680L564 673H236L244 678L193 356L188 365H471L468 346H185L193 355L139 16L133 19H473L464 12L499 141ZM316
747L308 761L488 868L501 840L316 747Z" />
<glyph unicode="&#xca;" horiz-adv-x="617" d="M499 141H513L491 0H22L24 15L129 29L120 21L223 671L229 663L128 672L130 687L247 692H588L567 556H552L557 680L564 673H236L244 678L193 356L188 365H471L468 346H185L193 355L139 16L133 19H473L464 12L499 141ZM273
742L264 755L406 862H421L534 755L521 742L406 837H414L273 742Z" />
<glyph unicode="&#xcb;" horiz-adv-x="617" d="M499 141H513L491 0H22L24 15L129 29L120 21L223 671L229 663L128 672L130 687L247 692H588L567 556H552L557 680L564 673H236L244 678L193 356L188 365H471L468 346H185L193 355L139 16L133 19H473L464 12L499 141ZM318
772Q308 772 302 779T296 799Q296 813 304 822T324 831Q334 831 340 824T346 805Q346 792 338 782T318 772ZM487 772Q477 772 471 779T465 799Q465 813 473 822T493 831Q503 831 509 824T515 805Q515 792 507 782T487 772Z" />
<glyph unicode="&#xcc;" horiz-adv-x="337" d="M341 677L236 663L244 671L141 21L136 29L236 15L234 0H22L24 15L130 29L121 21L224 671L230 663L128 672L130 687L343 692L341 677ZM581 747L395 840L412 867L589 762L581 747Z" />
<glyph unicode="&#xcd;" horiz-adv-x="337" d="M341 677L236 663L244 671L141 21L136 29L236 15L234 0H22L24 15L130 29L121 21L224 671L230 663L128 672L130 687L343 692L341 677ZM421 747L413 761L593 868L606 840L421 747Z" />
<glyph unicode="&#xce;" horiz-adv-x="337" d="M341 677L236 663L244 671L141 21L136 29L236 15L234 0H22L24 15L130 29L121 21L224 671L230 663L128 672L130 687L343 692L341 677ZM378 742L369 755L511 862H526L639 755L626 742L511 837H519L378 742Z" />
<glyph unicode="&#xcf;" horiz-adv-x="337" d="M341 677L236 663L244 671L141 21L136 29L236 15L234 0H22L24 15L130 29L121 21L224 671L230 663L128 672L130 687L343 692L341 677ZM423 772Q413 772 407 779T401 799Q401 813 409 822T429 831Q439 831 445 824T451
805Q451 792 443 782T423 772ZM592 772Q582 772 576 779T570 799Q570 813 578 822T598 831Q608 831 614 824T620 805Q620 792 612 782T592 772Z" />
<glyph unicode="&#xd0;" horiz-adv-x="718" d="M77 345L80 364H381L378 345H77ZM393 692Q474 692 534 665T626 581T659 429Q659 347 634 270T560 132T445 36T295 0H22L24 15L129 29L121 21L224 671L229 663L128 672L130 687L275 692H393ZM297 19Q358 19 411 41T505
103T577 194T622 305T638 426Q638 512 608 566T522 647T387 673H236L244 678L139 14L133 19H297Z" />
<glyph unicode="&#xd1;" horiz-adv-x="781" d="M586 687L798 692L796 677L691 663L699 671L593 0H575L239 669L243 670L140 21L135 29L235 15L233 0H22L24 15L129 29L121 21L224 671L229 663L128 672L130 687L250 692L582 31L579 30L680 672L685 663L584 672L586
687ZM359 772L346 781Q366 813 386 826T428 839Q452 839 471 829T509 808T546 797Q580 797 611 842L623 833Q603 801 583 789T542 776Q519 776 501 786T465 807T425 818Q408 818 393 808T359 772Z" />
<glyph unicode="&#xd2;" horiz-adv-x="736" d="M322 -6Q258 -6 205 21T119 109T86 264Q86 330 102 393T150 512T225 609T323 674T441 698Q506 698 560 670T646 583T678 430Q678 366 662 303T615 185T540 86T442 19T322 -6ZM324 14Q383 14 434 37T526 100T596 192T641
305T657 426Q657 513 628 568T549 651T438 678Q379 678 328 655T237 592T167 500T123 387T107 266Q107 180 136 124T214 41T324 14ZM547 747L361 840L378 867L555 762L547 747Z" />
<glyph unicode="&#xd3;" horiz-adv-x="736" d="M322 -6Q258 -6 205 21T119 109T86 264Q86 330 102 393T150 512T225 609T323 674T441 698Q506 698 560 670T646 583T678 430Q678 366 662 303T615 185T540 86T442 19T322 -6ZM324 14Q383 14 434 37T526 100T596 192T641
305T657 426Q657 513 628 568T549 651T438 678Q379 678 328 655T237 592T167 500T123 387T107 266Q107 180 136 124T214 41T324 14ZM387 747L379 761L559 868L572 840L387 747Z" />
<glyph unicode="&#xd4;" horiz-adv-x="736" d="M322 -6Q258 -6 205 21T119 109T86 264Q86 330 102 393T150 512T225 609T323 674T441 698Q506 698 560 670T646 583T678 430Q678 366 662 303T615 185T540 86T442 19T322 -6ZM324 14Q383 14 434 37T526 100T596 192T641
305T657 426Q657 513 628 568T549 651T438 678Q379 678 328 655T237 592T167 500T123 387T107 266Q107 180 136 124T214 41T324 14ZM344 742L335 755L477 862H492L605 755L592 742L477 837H485L344 742Z" />
<glyph unicode="&#xd5;" horiz-adv-x="736" d="M322 -6Q258 -6 205 21T119 109T86 264Q86 330 102 393T150 512T225 609T323 674T441 698Q506 698 560 670T646 583T678 430Q678 366 662 303T615 185T540 86T442 19T322 -6ZM324 14Q383 14 434 37T526 100T596 192T641
305T657 426Q657 513 628 568T549 651T438 678Q379 678 328 655T237 592T167 500T123 387T107 266Q107 180 136 124T214 41T324 14ZM352 772L339 781Q359 813 379 826T421 839Q445 839 464 829T502 808T539 797Q573 797 604 842L616 833Q596 801 576 789T535 776Q512
776 494 786T458 807T418 818Q401 818 386 808T352 772Z" />
<glyph unicode="&#xd6;" horiz-adv-x="736" d="M322 -6Q258 -6 205 21T119 109T86 264Q86 330 102 393T150 512T225 609T323 674T441 698Q506 698 560 670T646 583T678 430Q678 366 662 303T615 185T540 86T442 19T322 -6ZM324 14Q383 14 434 37T526 100T596 192T641
305T657 426Q657 513 628 568T549 651T438 678Q379 678 328 655T237 592T167 500T123 387T107 266Q107 180 136 124T214 41T324 14ZM389 772Q379 772 373 779T367 799Q367 813 375 822T395 831Q405 831 411 824T417 805Q417 792 409 782T389 772ZM558 772Q548 772
542 779T536 799Q536 813 544 822T564 831Q574 831 580 824T586 805Q586 792 578 782T558 772Z" />
<glyph unicode="&#xd7;" horiz-adv-x="537" d="M99 172L88 186L276 355L275 342L139 511L154 525L290 356H278L466 525L478 511L289 342L291 355L426 186L411 172L276 341H288L99 172Z" />
<glyph unicode="&#xd8;" horiz-adv-x="752" d="M702 762L717 752L617 622L613 617L185 57L182 53L88 -70L73 -59L169 67L172 71L597 626L601 631L702 762ZM328 -6Q265 -6 212 22T126 109T93 257Q93 326 109 391T157 511T232 609T330 674T448 698Q513 698 567 670T653
583T685 436Q685 369 669 305T622 184T547 85T448 18T328 -6ZM330 14Q389 14 440 36T533 99T603 193T648 306T664 431Q664 514 635 568T556 650T446 678Q387 678 336 656T244 593T174 499T130 386T114 261Q114 179 143 124T221 42T330 14Z" />
<glyph unicode="&#xd9;" horiz-adv-x="736" d="M550 687L763 692L761 677L654 663L663 671L597 253Q584 171 554 113T469 25T324 -6Q220 -6 174 38T128 168Q128 186 129 205T135 246L203 671L209 663L107 672L109 687L322 692L320 677L215 663L223 671L155 244Q152
223 150 204T148 168Q148 89 188 51T324 13Q409 13 460 41T538 124T577 255L643 671L649 664L548 672L550 687ZM521 747L335 840L352 867L529 762L521 747Z" />
<glyph unicode="&#xda;" horiz-adv-x="736" d="M550 687L763 692L761 677L654 663L663 671L597 253Q584 171 554 113T469 25T324 -6Q220 -6 174 38T128 168Q128 186 129 205T135 246L203 671L209 663L107 672L109 687L322 692L320 677L215 663L223 671L155 244Q152
223 150 204T148 168Q148 89 188 51T324 13Q409 13 460 41T538 124T577 255L643 671L649 664L548 672L550 687ZM361 747L353 761L533 868L546 840L361 747Z" />
<glyph unicode="&#xdb;" horiz-adv-x="736" d="M550 687L763 692L761 677L654 663L663 671L597 253Q584 171 554 113T469 25T324 -6Q220 -6 174 38T128 168Q128 186 129 205T135 246L203 671L209 663L107 672L109 687L322 692L320 677L215 663L223 671L155 244Q152
223 150 204T148 168Q148 89 188 51T324 13Q409 13 460 41T538 124T577 255L643 671L649 664L548 672L550 687ZM318 742L309 755L451 862H466L579 755L566 742L451 837H459L318 742Z" />
<glyph unicode="&#xdc;" horiz-adv-x="736" d="M550 687L763 692L761 677L654 663L663 671L597 253Q584 171 554 113T469 25T324 -6Q220 -6 174 38T128 168Q128 186 129 205T135 246L203 671L209 663L107 672L109 687L322 692L320 677L215 663L223 671L155 244Q152
223 150 204T148 168Q148 89 188 51T324 13Q409 13 460 41T538 124T577 255L643 671L649 664L548 672L550 687ZM363 772Q353 772 347 779T341 799Q341 813 349 822T369 831Q379 831 385 824T391 805Q391 792 383 782T363 772ZM532 772Q522 772 516 779T510 799Q510
813 518 822T538 831Q548 831 554 824T560 805Q560 792 552 782T532 772Z" />
<glyph unicode="&#xdd;" horiz-adv-x="610" d="M158 0L160 15L265 29L257 21L296 268L298 251L159 670L168 663L70 672L73 687L299 692L297 677L174 663L179 670L310 275H304L562 670L565 664L448 672L450 687L673 692L671 677L571 663L582 670L309 251L314 268L276
21L271 29L371 15L369 0H158ZM301 747L293 761L473 868L486 840L301 747Z" />
<glyph unicode="&#xde;" horiz-adv-x="557" d="M22 0L24 15L130 29L121 21L224 671L230 663L128 672L130 687L343 692L341 677L236 663L244 671L225 551L217 556H346Q407 556 447 538T506 485T526 397Q526 326 492 270T395 181T251 149H152L162 154L141 21L136
29L236 15L234 0H22ZM163 160L155 168H253Q329 168 385 198T473 279T505 395Q505 466 464 501T343 537H214L224 545L163 160Z" />
<glyph unicode="&#xdf;" d="M-58 -237Q-68 -237 -76 -237T-93 -235L-90 -217Q-82 -218 -75 -218T-62 -218Q0 -218 28 -187T69 -77L161 506L166 498H74L76 513L169 517L161 510L172 579Q183 645 214 686T291 748T389 768Q432 768 466 755T520 716T541 650Q541 614
526 591T486 551T435 522T383 495T344 460T328 407Q328 377 342 357T378 323T425 295T472 264T509 222T523 158Q523 106 496 70T425 14T328 -6Q303 -6 278 -1T226 14L250 127L265 126L258 20L253 29Q273 21 293 17T333 13Q377 13 415 30T478 79T502 156Q502 190
488 212T452 251T405 280T358 310T321 348T307 405Q307 441 322 463T362 502T413 530T465 558T504 594T520 649Q520 701 482 725T387 749Q312 749 259 708T192 578L89 -75Q82 -117 71 -147T43 -198T1 -227T-58 -237Z" />
<glyph unicode="&#xe0;" horiz-adv-x="579" d="M192 -6Q155 -6 125 14T76 76T58 185Q58 255 79 317T137 426T226 501T337 528Q369 528 405 519T481 485L473 482L486 522H500L420 19L413 29L506 17L504 2L397 -2L432 220L438 221Q409 141 366 91T277 17T192 -6ZM193
13Q226 13 265 32T341 90T407 190T450 335L473 479L478 467Q441 489 406 499T336 509Q280 509 233 484T152 414T98 311T79 186Q79 95 112 54T193 13ZM297 772L445 647L435 634L278 748L297 772Z" />
<glyph unicode="&#xe1;" horiz-adv-x="579" d="M192 -6Q155 -6 125 14T76 76T58 185Q58 255 79 317T137 426T226 501T337 528Q369 528 405 519T481 485L473 482L486 522H500L420 19L413 29L506 17L504 2L397 -2L432 220L438 221Q409 141 366 91T277 17T192 -6ZM193
13Q226 13 265 32T341 90T407 190T450 335L473 479L478 467Q441 489 406 499T336 509Q280 509 233 484T152 414T98 311T79 186Q79 95 112 54T193 13ZM304 634L293 648L449 772L467 745L304 634Z" />
<glyph unicode="&#xe2;" horiz-adv-x="579" d="M192 -6Q155 -6 125 14T76 76T58 185Q58 255 79 317T137 426T226 501T337 528Q369 528 405 519T481 485L473 482L486 522H500L420 19L413 29L506 17L504 2L397 -2L432 220L438 221Q409 141 366 91T277 17T192 -6ZM193
13Q226 13 265 32T341 90T407 190T450 335L473 479L478 467Q441 489 406 499T336 509Q280 509 233 484T152 414T98 311T79 186Q79 95 112 54T193 13ZM234 637L225 650L364 764H379L487 650L473 637L364 741H373L234 637Z" />
<glyph unicode="&#xe3;" horiz-adv-x="579" d="M192 -6Q155 -6 125 14T76 76T58 185Q58 255 79 317T137 426T226 501T337 528Q369 528 405 519T481 485L473 482L486 522H500L420 19L413 29L506 17L504 2L397 -2L432 220L438 221Q409 141 366 91T277 17T192 -6ZM193
13Q226 13 265 32T341 90T407 190T450 335L473 479L478 467Q441 489 406 499T336 509Q280 509 233 484T152 414T98 311T79 186Q79 95 112 54T193 13ZM418 657Q393 657 374 670T338 696T299 709Q281 709 265 697T231 659L217 668Q237 702 258 716T301 730Q327 730
346 717T383 691T422 678Q439 678 455 690T489 729L503 720Q483 686 462 672T418 657Z" />
<glyph unicode="&#xe4;" horiz-adv-x="579" d="M192 -6Q155 -6 125 14T76 76T58 185Q58 255 79 317T137 426T226 501T337 528Q369 528 405 519T481 485L473 482L486 522H500L420 19L413 29L506 17L504 2L397 -2L432 220L438 221Q409 141 366 91T277 17T192 -6ZM193
13Q226 13 265 32T341 90T407 190T450 335L473 479L478 467Q441 489 406 499T336 509Q280 509 233 484T152 414T98 311T79 186Q79 95 112 54T193 13ZM272 663Q262 663 256 670T250 690Q250 704 258 713T278 722Q288 722 294 715T300 696Q300 683 292 673T272 663ZM441
663Q431 663 425 670T419 690Q419 704 427 713T447 722Q457 722 463 715T469 696Q469 683 461 673T441 663Z" />
<glyph unicode="&#xe5;" horiz-adv-x="579" d="M192 -6Q155 -6 125 14T76 76T58 185Q58 255 79 317T137 426T226 501T337 528Q369 528 405 519T481 485L473 482L486 522H500L420 19L413 29L506 17L504 2L397 -2L432 220L438 221Q409 141 366 91T277 17T192 -6ZM193
13Q226 13 265 32T341 90T407 190T450 335L473 479L478 467Q441 489 406 499T336 509Q280 509 233 484T152 414T98 311T79 186Q79 95 112 54T193 13ZM350 632Q326 632 307 646T287 692Q287 718 299 736T332 765T374 775Q398 775 417 761T437 715Q437 690 425 671T393
642T350 632ZM353 649Q382 649 400 669T418 714Q418 734 406 746T371 758Q343 758 325 739T306 693Q306 673 318 661T353 649Z" />
<glyph unicode="&#xe6;" horiz-adv-x="791" d="M373 166Q373 142 353 113T300 56T232 12T165 -6Q107 -6 75 24T42 111Q42 162 70 192T145 236T249 254T363 258H375L365 253Q371 301 380 345T389 422Q389 463 364 486T290 509Q256 509 219 501T145 479L153 490L133
392H116L122 491Q170 508 214 518T296 528Q347 528 378 502T410 430Q410 414 408 401T403 364L401 367Q434 435 492 481T630 528Q692 528 727 498T763 416Q763 373 739 343T674 293T583 264T480 248T379 242L386 248Q384 235 383 222T382 195Q382 102 424 58T533
13Q568 13 608 25T690 63L699 47Q655 21 612 8T531 -6Q452 -6 407 47T361 192Q361 203 362 218T365 247L373 239H363Q309 239 256 235T159 219T89 181T63 113Q63 67 90 40T169 13Q198 13 231 30T293 76T342 135T361 192L373 166ZM387 255L382 261Q422 262 470 265T566
278T654 304T718 348T742 415Q742 460 711 484T627 509Q578 509 537 489T465 432T415 351T387 255Z" />
<glyph unicode="&#xe7;" horiz-adv-x="476" d="M224 -6Q177 -6 140 15T80 81T58 197Q58 265 78 325T135 430T219 502T322 528Q354 528 389 518T458 486L440 382H422L426 488L430 479Q373 509 320 509Q268 509 224 484T148 415T97 316T79 198Q79 101 121 58T228
14Q263 14 302 26T380 63L389 47Q347 21 305 8T224 -6ZM202 -212Q186 -212 169 -208T134 -196L144 -179Q173 -192 203 -192Q235 -192 257 -178T280 -135Q280 -110 259 -99T195 -87L212 0H230L219 -68Q266 -72 283 -87T301 -129Q301 -154 288 -173T252 -202T202
-212Z" />
<glyph unicode="&#xe8;" horiz-adv-x="487" d="M228 -6Q179 -6 141 16T80 83T58 196Q58 258 76 317T130 423T214 499T325 528Q389 528 424 498T460 423Q460 380 429 346T347 287T236 249T118 236Q105 236 95 236T73 238L77 258Q88 257 100 256T126 255Q177 255
232 267T334 301T410 353T439 422Q439 460 408 484T322 509Q265 509 220 482T144 410T96 309T79 195Q79 102 121 58T230 13Q265 13 305 25T387 63L396 47Q352 21 309 8T228 -6ZM280 772L428 647L418 634L261 748L280 772Z" />
<glyph unicode="&#xe9;" horiz-adv-x="487" d="M228 -6Q179 -6 141 16T80 83T58 196Q58 258 76 317T130 423T214 499T325 528Q389 528 424 498T460 423Q460 380 429 346T347 287T236 249T118 236Q105 236 95 236T73 238L77 258Q88 257 100 256T126 255Q177 255
232 267T334 301T410 353T439 422Q439 460 408 484T322 509Q265 509 220 482T144 410T96 309T79 195Q79 102 121 58T230 13Q265 13 305 25T387 63L396 47Q352 21 309 8T228 -6ZM287 634L276 648L432 772L450 745L287 634Z" />
<glyph unicode="&#xea;" horiz-adv-x="487" d="M228 -6Q179 -6 141 16T80 83T58 196Q58 258 76 317T130 423T214 499T325 528Q389 528 424 498T460 423Q460 380 429 346T347 287T236 249T118 236Q105 236 95 236T73 238L77 258Q88 257 100 256T126 255Q177 255
232 267T334 301T410 353T439 422Q439 460 408 484T322 509Q265 509 220 482T144 410T96 309T79 195Q79 102 121 58T230 13Q265 13 305 25T387 63L396 47Q352 21 309 8T228 -6ZM217 637L208 650L347 764H362L470 650L456 637L347 741H356L217 637Z" />
<glyph unicode="&#xeb;" horiz-adv-x="487" d="M228 -6Q179 -6 141 16T80 83T58 196Q58 258 76 317T130 423T214 499T325 528Q389 528 424 498T460 423Q460 380 429 346T347 287T236 249T118 236Q105 236 95 236T73 238L77 258Q88 257 100 256T126 255Q177 255
232 267T334 301T410 353T439 422Q439 460 408 484T322 509Q265 509 220 482T144 410T96 309T79 195Q79 102 121 58T230 13Q265 13 305 25T387 63L396 47Q352 21 309 8T228 -6ZM255 663Q245 663 239 670T233 690Q233 704 241 713T261 722Q271 722 277 715T283 696Q283
683 275 673T255 663ZM424 663Q414 663 408 670T402 690Q402 704 410 713T430 722Q440 722 446 715T452 696Q452 683 444 673T424 663Z" />
<glyph unicode="&#xec;" horiz-adv-x="263" d="M80 -2L160 502L168 492L75 505L77 520L184 525L104 22L99 29L189 17L187 2L80 -2ZM392 772L540 647L530 634L373 748L392 772Z" />
<glyph unicode="&#xed;" horiz-adv-x="263" d="M80 -2L160 502L168 492L75 505L77 520L184 525L104 22L99 29L189 17L187 2L80 -2ZM143 634L132 648L288 772L306 745L143 634Z" />
<glyph unicode="&#xee;" horiz-adv-x="263" d="M83 637L72 648L190 764H205L285 646L271 637L191 741H201L83 637ZM80 -2L160 502L168 492L75 505L77 520L184 525L104 22L99 29L189 17L187 2L80 -2Z" />
<glyph unicode="&#xef;" horiz-adv-x="263" d="M80 -2L160 502L168 492L75 505L77 520L184 525L104 22L99 29L189 17L187 2L80 -2ZM114 663Q104 663 98 670T92 690Q92 704 100 713T120 722Q130 722 136 715T142 696Q142 683 134 673T114 663ZM271 663Q261 663
255 670T249 690Q249 704 257 713T277 722Q287 722 293 715T299 696Q299 683 291 673T271 663Z" />
<glyph unicode="&#xf0;" horiz-adv-x="572" d="M227 -6Q148 -6 103 42T58 191Q58 254 76 314T129 422T214 499T331 528Q384 528 417 510T468 460T492 391L486 390Q488 493 464 573T383 701T232 749L236 768Q308 767 359 741T443 667T490 555T506 410Q506 319 488
243T434 111T347 25T227 -6ZM230 13Q289 13 335 40T412 114T460 216T477 330Q477 418 439 463T327 509Q267 509 221 482T144 410T96 308T79 194Q79 103 118 58T230 13ZM275 612L268 628L521 768L528 752L275 612Z" />
<glyph unicode="&#xf1;" horiz-adv-x="594" d="M420 -2L478 361Q487 414 476 446T442 494T388 509Q354 509 315 490T239 432T173 332T130 187L100 0H80L160 502L166 492L75 505L77 520L184 525L147 302L142 301Q174 386 216 435T304 506T388 528Q425 528 453 511T495
456T498 360L443 19L436 29L529 17L527 2L420 -2ZM424 657Q399 657 380 670T344 696T305 709Q287 709 271 697T237 659L223 668Q243 702 264 716T307 730Q333 730 352 717T389 691T428 678Q445 678 461 690T495 729L509 720Q489 686 468 672T424 657Z" />
<glyph unicode="&#xf2;" horiz-adv-x="552" d="M319 528Q371 528 409 506T469 437T491 318Q491 258 475 200T426 96T345 22T234 -6Q184 -6 145 16T84 85T62 205Q62 266 78 323T127 427T208 500T319 528ZM316 509Q260 509 217 484T144 415T99 318T83 208Q83 114
123 64T238 13Q293 13 336 38T409 107T454 204T470 315Q470 410 431 459T316 509ZM290 772L438 647L428 634L271 748L290 772Z" />
<glyph unicode="&#xf3;" horiz-adv-x="552" d="M319 528Q371 528 409 506T469 437T491 318Q491 258 475 200T426 96T345 22T234 -6Q184 -6 145 16T84 85T62 205Q62 266 78 323T127 427T208 500T319 528ZM316 509Q260 509 217 484T144 415T99 318T83 208Q83 114
123 64T238 13Q293 13 336 38T409 107T454 204T470 315Q470 410 431 459T316 509ZM297 634L286 648L442 772L460 745L297 634Z" />
<glyph unicode="&#xf4;" horiz-adv-x="552" d="M319 528Q371 528 409 506T469 437T491 318Q491 258 475 200T426 96T345 22T234 -6Q184 -6 145 16T84 85T62 205Q62 266 78 323T127 427T208 500T319 528ZM316 509Q260 509 217 484T144 415T99 318T83 208Q83 114
123 64T238 13Q293 13 336 38T409 107T454 204T470 315Q470 410 431 459T316 509ZM227 637L218 650L357 764H372L480 650L466 637L357 741H366L227 637Z" />
<glyph unicode="&#xf5;" horiz-adv-x="552" d="M319 528Q371 528 409 506T469 437T491 318Q491 258 475 200T426 96T345 22T234 -6Q184 -6 145 16T84 85T62 205Q62 266 78 323T127 427T208 500T319 528ZM316 509Q260 509 217 484T144 415T99 318T83 208Q83 114
123 64T238 13Q293 13 336 38T409 107T454 204T470 315Q470 410 431 459T316 509ZM411 657Q386 657 367 670T331 696T292 709Q274 709 258 697T224 659L210 668Q230 702 251 716T294 730Q320 730 339 717T376 691T415 678Q432 678 448 690T482 729L496 720Q476
686 455 672T411 657Z" />
<glyph unicode="&#xf6;" horiz-adv-x="552" d="M319 528Q371 528 409 506T469 437T491 318Q491 258 475 200T426 96T345 22T234 -6Q184 -6 145 16T84 85T62 205Q62 266 78 323T127 427T208 500T319 528ZM316 509Q260 509 217 484T144 415T99 318T83 208Q83 114
123 64T238 13Q293 13 336 38T409 107T454 204T470 315Q470 410 431 459T316 509ZM265 663Q255 663 249 670T243 690Q243 704 251 713T271 722Q281 722 287 715T293 696Q293 683 285 673T265 663ZM434 663Q424 663 418 670T412 690Q412 704 420 713T440 722Q450
722 456 715T462 696Q462 683 454 673T434 663Z" />
<glyph unicode="&#xf7;" horiz-adv-x="723" d="M585 358L582 339H165L168 358H585ZM349 170Q339 170 334 176T328 193Q328 207 337 214T356 222Q364 222 370 217T377 199Q377 186 369 178T349 170ZM398 481Q388 481 383 487T377 504Q377 518 386 525T405 533Q413
533 419 528T426 510Q426 497 418 489T398 481Z" />
<glyph unicode="&#xf8;" horiz-adv-x="580" d="M522 590L537 580L455 470L451 465L139 45L134 39L53 -71L39 -60L123 53L128 60L438 477L442 482L522 590ZM333 528Q385 528 423 506T483 437T505 318Q505 258 489 200T440 96T359 22T248 -6Q198 -6 159 16T98 85T76
205Q76 266 92 323T141 427T222 500T333 528ZM330 509Q274 509 231 484T158 415T113 318T97 208Q97 114 137 64T252 13Q307 13 350 38T423 107T468 204T484 315Q484 410 445 459T330 509Z" />
<glyph unicode="&#xf9;" horiz-adv-x="594" d="M208 -6Q171 -7 142 10T101 65T97 162L151 502L156 492L66 505L68 520L175 525L117 161Q109 108 119 76T153 28T207 13Q241 13 280 32T356 90T423 190T465 335L495 522H515L436 22L431 29L521 17L519 2L412 -2L447
220L453 221Q423 139 381 90T293 18T208 -6ZM296 772L444 647L434 634L277 748L296 772Z" />
<glyph unicode="&#xfa;" horiz-adv-x="594" d="M208 -6Q171 -7 142 10T101 65T97 162L151 502L156 492L66 505L68 520L175 525L117 161Q109 108 119 76T153 28T207 13Q241 13 280 32T356 90T423 190T465 335L495 522H515L436 22L431 29L521 17L519 2L412 -2L447
220L453 221Q423 139 381 90T293 18T208 -6ZM303 634L292 648L448 772L466 745L303 634Z" />
<glyph unicode="&#xfb;" horiz-adv-x="594" d="M208 -6Q171 -7 142 10T101 65T97 162L151 502L156 492L66 505L68 520L175 525L117 161Q109 108 119 76T153 28T207 13Q241 13 280 32T356 90T423 190T465 335L495 522H515L436 22L431 29L521 17L519 2L412 -2L447
220L453 221Q423 139 381 90T293 18T208 -6ZM233 637L224 650L363 764H378L486 650L472 637L363 741H372L233 637Z" />
<glyph unicode="&#xfc;" horiz-adv-x="594" d="M208 -6Q171 -7 142 10T101 65T97 162L151 502L156 492L66 505L68 520L175 525L117 161Q109 108 119 76T153 28T207 13Q241 13 280 32T356 90T423 190T465 335L495 522H515L436 22L431 29L521 17L519 2L412 -2L447
220L453 221Q423 139 381 90T293 18T208 -6ZM271 663Q261 663 255 670T249 690Q249 704 257 713T277 722Q287 722 293 715T299 696Q299 683 291 673T271 663ZM440 663Q430 663 424 670T418 690Q418 704 426 713T446 722Q456 722 462 715T468 696Q468 683 460 673T440
663Z" />
<glyph unicode="&#xfd;" horiz-adv-x="479" d="M-50 -233L-47 -215Q-40 -216 -34 -216T-20 -217Q33 -217 69 -190T135 -109T198 20L196 7L95 503L103 497L29 505L32 520L111 525L211 29H206L447 503L451 498L369 505L371 520L526 525L524 510L456 497L468 503L209
-5Q191 -40 175 -73T140 -136T100 -188T50 -223T-16 -236Q-30 -236 -50 -233ZM220 634L209 648L365 772L383 745L220 634Z" />
<glyph unicode="&#xfe;" horiz-adv-x="569" d="M-54 -230L-52 -215L42 -201L35 -209L186 742L192 732L101 745L103 760L210 765L135 293L130 301Q160 382 202 432T291 505T376 528Q413 528 443 508T492 446T510 337Q510 240 478 167T387 51T248 -3T71 15L91 16L55
-209L47 -201L152 -215L150 -230H-54ZM91 15L84 32Q175 5 249 15T377 66T460 176T489 336Q489 428 456 468T375 509Q342 509 303 490T227 432T160 332T118 187L91 15Z" />
<glyph unicode="&#xff;" horiz-adv-x="479" d="M-50 -233L-47 -215Q-40 -216 -34 -216T-20 -217Q33 -217 69 -190T135 -109T198 20L196 7L95 503L103 497L29 505L32 520L111 525L211 29H206L447 503L451 498L369 505L371 520L526 525L524 510L456 497L468 503L209
-5Q191 -40 175 -73T140 -136T100 -188T50 -223T-16 -236Q-30 -236 -50 -233ZM444 663Q434 663 428 670T422 690Q422 704 430 713T450 722Q460 722 466 715T472 696Q472 683 464 673T444 663ZM613 663Q603 663 597 670T591 690Q591 704 599 713T619 722Q629 722
635 715T641 696Q641 683 633 673T613 663Z" />
<glyph unicode="&#x2013;" horiz-adv-x="592" d="M519 303L516 284H84L87 303H519Z" />
<glyph unicode="&#x2014;" horiz-adv-x="832" d="M758 301L755 282H83L86 301H758Z" />
<glyph unicode="&#x2018;" horiz-adv-x="157" d="M156 635Q156 622 148 615T130 607Q122 607 116 613T109 632Q109 648 120 672T147 724T181 774L192 764Q164 723 156 700T147 668Q147 658 151 652T156 635Z" />
<glyph unicode="&#x2019;" horiz-adv-x="158" d="M142 743Q142 757 150 764T168 771Q176 771 182 765T189 746Q189 730 178 706T151 654T117 604L106 614Q134 655 142 678T151 710Q151 720 147 726T142 743Z" />
<glyph unicode="&#x201a;" horiz-adv-x="158" d="M22 18Q22 32 30 39T48 46Q56 46 62 40T69 21Q69 5 58 -19T31 -71T-3 -121L-14 -111Q14 -70 22 -47T31 -15Q31 -5 27 1T22 18Z" />
<glyph unicode="&#x201c;" horiz-adv-x="274" d="M159 652Q159 639 151 632T133 624Q125 624 119 630T112 649Q112 665 123 689T150 741T184 791L195 781Q167 740 159 717T150 685Q150 675 154 669T159 652ZM275 652Q275 639 267 632T249 624Q241 624 235 630T228
649Q228 665 239 689T266 741T300 791L311 781Q283 740 275 717T266 685Q266 675 270 669T275 652Z" />
<glyph unicode="&#x201d;" horiz-adv-x="274" d="M253 743Q253 757 261 764T279 771Q287 771 293 765T300 746Q300 730 289 706T262 654T228 604L217 614Q245 655 253 678T262 710Q262 720 258 726T253 743ZM137 743Q137 757 145 764T163 771Q171 771 177 765T184
746Q184 730 173 706T146 654T112 604L101 614Q129 655 137 678T146 710Q146 720 142 726T137 743Z" />
<glyph unicode="&#x201e;" horiz-adv-x="274" d="M138 18Q138 32 146 39T164 46Q172 46 178 40T185 21Q185 5 174 -19T147 -71T113 -121L102 -111Q130 -70 138 -47T147 -15Q147 -5 143 1T138 18ZM22 18Q22 32 30 39T48 46Q56 46 62 40T69 21Q69 5 58 -19T31 -71T-3
-121L-14 -111Q14 -70 22 -47T31 -15Q31 -5 27 1T22 18Z" />
<glyph unicode="&#x2022;" horiz-adv-x="313" d="M100 318Q100 341 109 357T134 382T168 391Q186 391 200 383T222 358T231 321Q231 299 222 283T198 258T164 249Q146 249 132 257T109 281T100 318Z" />
<glyph unicode="&#x2039;" horiz-adv-x="279" d="M168 81L60 260L63 281L227 460L238 449L75 264L77 278L182 91L168 81Z" />
<glyph unicode="&#x203a;" horiz-adv-x="279" d="M114 460L222 281L219 260L55 81L44 92L207 277L205 263L100 450L114 460Z" />
</font>
</defs>
</svg>
