<?xml version="1.0" standalone="no"?>
<!DOCTYPE svg PUBLIC "-//W3C//DTD SVG 1.1//EN" "http://www.w3.org/Graphics/SVG/1.1/DTD/svg11.dtd">
<svg xmlns="http://www.w3.org/2000/svg">
<defs >
<font id="Bitter" horiz-adv-x="587" ><font-face
    font-family="Bitter Thin ExtraBold"
    units-per-em="1000"
    panose-1="0 0 0 0 0 0 0 0 0 0"
    ascent="935"
    descent="-265"
    alphabetic="0" />
<glyph unicode=" " horiz-adv-x="170" />
<glyph unicode="!" horiz-adv-x="316" d="M96 250L68 707H248L220 258L96 250ZM65 77Q65 119 92 143T158 168Q201 168 226 144T251 77Q251 36 223 12T158 -13Q115 -13 90 11T65 77Z" />
<glyph unicode="&quot;" horiz-adv-x="459" d="M80 490L57 777H205L181 490H80ZM277 490L254 777H402L378 490H277Z" />
<glyph unicode="#" horiz-adv-x="674" d="M64 541H649V438H64V541ZM25 272H610V169H25V272ZM191 707H327L227 0H91L191 707ZM447 707H583L483 0H347L447 707Z" />
<glyph unicode="$" horiz-adv-x="598" d="M249 -128V28L295 1Q289 1 283 1T271 1Q228 1 168 11T50 43L51 245H155L174 150Q200 139 228 133T282 127Q313 127 338 135T377 160T392 202Q392 231 374 248T325 276T257 296T183 318T116 351T67 406T48 493Q48 563 82
610T174 681T306 705L249 675V831H364V676L319 705H327Q355 705 394 698T472 681T537 661L525 477H423L402 566Q383 573 362 576T320 579Q291 579 268 573T230 552T216 513Q216 486 234 470T284 443T352 422T426 399T494 365T544 309T563 222Q563 153 529 106T438
33T308 2L364 36V-128H249Z" />
<glyph unicode="%" horiz-adv-x="880" d="M132 -14L607 720H744L269 -14H132ZM210 347Q126 347 78 397T30 533Q30 616 78 668T217 720Q306 720 350 670T395 541Q395 454 347 401T210 347ZM213 438Q246 438 258 462T271 535Q271 584 259 607T215 630Q181 630 168
606T154 531Q154 485 167 462T213 438ZM664 -13Q580 -13 532 37T484 172Q484 255 532 307T671 360Q761 360 805 310T849 180Q849 94 801 41T664 -13ZM667 77Q700 77 712 101T725 174Q725 223 713 246T669 269Q635 269 622 245T609 171Q609 125 621 101T667 77Z"
/>
<glyph unicode="&amp;" horiz-adv-x="662" d="M300 -13Q227 -13 169 8T76 74T42 187Q42 237 63 277T128 345T239 382L244 362Q156 370 109 416T61 532Q61 599 97 640T191 701T317 720Q369 720 427 710T540 679L530 513H423L401 598L433 577Q404 585 380 590T332
595Q289 595 263 576T237 515Q237 472 267 451T340 429H646V339L566 313L582 342V230Q582 153 547 98T449 15T300 -13ZM318 120Q363 120 388 145T414 218V328L443 307H325Q291 307 268 295T232 262T219 213Q219 170 247 145T318 120Z" />
<glyph unicode="&apos;" horiz-adv-x="262" d="M80 490L57 777H205L181 490H80Z" />
<glyph unicode="(" horiz-adv-x="319" d="M322 834Q252 731 217 612T181 374Q181 257 216 138T322 -85L213 -150Q115 -33 68 103T20 374Q20 510 67 646T213 899L322 834Z" />
<glyph unicode=")" horiz-adv-x="319" d="M-3 -85Q68 19 103 138T138 375Q138 494 103 612T-3 835L106 899Q205 782 252 647T300 375Q300 240 253 104T106 -149L-3 -85Z" />
<glyph unicode="*" horiz-adv-x="443" d="M285 417L220 527L231 574L280 569L361 474L285 417ZM160 416L79 474L161 571L209 574L220 527L160 416ZM161 571L38 591L69 685L183 641L203 594L161 571ZM219 609L183 641L169 759L267 760L258 640L219 609ZM280 569L241
598L258 640L369 688L401 593L280 569Z" />
<glyph unicode="+" horiz-adv-x="534" d="M230 410L203 384V595H331V384L305 410H507V291H305L331 317V106H203V317L230 291H27V410H230Z" />
<glyph unicode="," horiz-adv-x="259" d="M28 -150Q63 -98 74 -69T85 -28Q85 -12 75 1T55 33T45 78Q45 122 74 145T139 169Q162 169 183 159T217 127T231 69Q231 23 200 -43T89 -191L28 -150Z" />
<glyph unicode="-" horiz-adv-x="440" d="M383 357V229H57V357H383Z" />
<glyph unicode="." horiz-adv-x="243" d="M28 78Q28 120 56 144T122 169Q165 169 190 145T215 78Q215 37 187 13T122 -12Q79 -12 54 12T28 78Z" />
<glyph unicode="/" horiz-adv-x="352" d="M365 810L104 -87H-13L246 810H365Z" />
<glyph unicode="0" horiz-adv-x="631" d="M312 -13Q213 -13 152 27T64 148T36 347Q36 470 64 553T155 678T323 720Q428 720 487 680T570 561T595 364Q595 241 566 157T475 30T312 -13ZM315 117Q356 117 377 143T406 223T415 358Q415 439 408 490T379 565T318 590Q277
590 255 564T224 485T216 352Q216 273 223 221T253 143T315 117Z" />
<glyph unicode="1" horiz-adv-x="444" d="M346 75L313 118L443 86V0H51V86L206 116L172 75V564L219 563L58 474L3 579L201 711H346V75Z" />
<glyph unicode="2" horiz-adv-x="572" d="M32 0V145Q142 231 212 292T315 402T348 499Q348 547 320 569T248 592Q226 592 202 587T150 572L169 600L150 493H46L34 683Q100 701 161 710T277 720Q352 720 409 701T498 638T531 524Q531 449 495 383T391 253T231 116V135H543V0H32Z"
/>
<glyph unicode="3" horiz-adv-x="579" d="M254 -13Q192 -13 132 1T19 42L63 163Q108 143 155 132T245 120Q282 120 310 129T354 160T370 214Q370 243 356 263T315 293T247 303H158V425H240Q297 425 327 446T358 511Q358 557 328 577T250 597Q222 597 195 591T142
576L163 597L150 500H48L39 678Q101 699 164 709T286 720Q356 720 412 703T501 647T534 541Q534 462 485 418T352 365L346 379Q449 372 498 329T547 207Q547 149 523 108T458 39T364 0T254 -13Z" />
<glyph unicode="4" horiz-adv-x="621" d="M344 179L386 144H23L5 265L314 721L518 707V246L475 277H612V144H475L518 179V0H344V179ZM390 277L347 246V625L407 614L141 215L107 277H390Z" />
<glyph unicode="5" horiz-adv-x="553" d="M258 -12Q144 -12 20 43L66 163Q109 144 151 133T231 122Q265 122 290 133T330 165T344 220Q344 264 319 284T247 310T136 316H62L76 707H495L492 575H198L247 604L237 405L192 441H253Q354 441 414 415T500 342T527 230Q527
149 492 95T396 15T258 -12Z" />
<glyph unicode="6" horiz-adv-x="594" d="M188 280L180 392Q220 413 265 427T358 441Q419 441 467 417T545 346T575 229Q575 152 540 98T444 16T307 -13Q231 -13 168 19T67 123T29 312Q29 440 75 531T202 671T390 720Q453 720 519 703L508 579Q482 584 458 586T414
588Q339 588 294 557T228 463T208 306Q208 211 231 165T307 119Q349 119 373 145T397 221Q397 255 385 277T351 310T301 322Q274 322 245 312T188 280Z" />
<glyph unicode="7" horiz-adv-x="555" d="M545 586L292 0H100L366 596L389 570H111L147 596L121 475H17V707H545V586Z" />
<glyph unicode="8" horiz-adv-x="602" d="M288 -13Q239 -13 192 -1T108 35T49 95T27 179Q27 213 39 244T75 300T132 342T208 369L306 320Q282 313 262 303T227 277T204 244T195 203Q195 176 207 155T243 122T299 109Q332 109 355 121T392 154T405 199Q405 230
386 250T335 286T265 314T189 344T120 382T69 437T49 519Q49 587 86 631T182 698T309 720Q374 720 429 700T519 638T554 534Q554 501 543 475T511 428T461 393T393 369L270 420Q298 422 320 430T357 452T380 482T388 520Q388 546 377 563T347 589T302 599Q279 599
260 591T228 566T216 527Q216 497 235 477T287 442T357 414T433 385T503 346T554 290T574 207Q574 152 549 111T483 42T392 1T288 -13Z" />
<glyph unicode="9" horiz-adv-x="593" d="M405 425L414 312Q374 292 329 278T234 263Q170 263 122 289T46 362T18 476Q18 554 53 608T149 691T286 720Q363 720 426 688T527 583T564 394Q564 268 519 177T392 36T203 -13Q141 -13 74 5L86 127Q112 122 135 120T179
117Q255 117 300 148T366 243T386 400Q386 495 363 541T286 588Q245 588 221 562T197 486Q197 451 209 428T242 394T291 382Q319 382 348 392T405 425Z" />
<glyph unicode=":" horiz-adv-x="243" d="M28 78Q28 120 56 144T122 169Q165 169 190 145T215 78Q215 37 187 13T122 -12Q79 -12 54 12T28 78ZM28 399Q28 441 56 465T122 490Q165 490 190 466T215 399Q215 358 187 334T122 309Q79 309 54 333T28 399Z" />
<glyph unicode=";" horiz-adv-x="259" d="M28 -150Q63 -98 74 -69T85 -28Q85 -12 75 1T55 33T45 78Q45 122 74 145T139 169Q162 169 183 159T217 127T231 69Q231 23 200 -43T89 -191L28 -150ZM44 399Q44 441 72 465T138 490Q181 490 206 466T231 399Q231 358 203
334T138 309Q95 309 70 333T44 399Z" />
<glyph unicode="&lt;" horiz-adv-x="537" d="M450 103L29 294V417L451 615L495 498L157 343V374L496 224L450 103Z" />
<glyph unicode="=" horiz-adv-x="523" d="M495 509V390H28V509H495ZM495 557V438H28V557H495Z" />
<glyph unicode="&gt;" horiz-adv-x="534" d="M91 593L505 423V299L89 124L47 237L377 373V342L47 465L91 593Z" />
<glyph unicode="?" horiz-adv-x="464" d="M117 252Q113 269 111 284T108 313Q108 352 124 378T165 422T212 456T252 491T269 536Q269 567 246 581T187 596Q158 596 122 588T51 567L15 676Q127 723 236 723Q294 723 341 708T416 658T444 566Q444 517 424 484T375
426T316 381T266 337T246 280Q246 276 246 270T247 259L117 252ZM100 76Q100 118 127 143T195 168Q236 168 261 144T286 79Q286 36 258 12T190 -13Q150 -13 125 11T100 76Z" />
<glyph unicode="@" horiz-adv-x="865" d="M389 -114Q288 -114 208 -70T81 59T35 264Q35 364 67 439T157 565T288 641T446 667Q529 667 600 643T724 571T807 456T837 300Q837 182 783 122T633 61Q578 61 542 83T490 153L514 154Q490 109 452 86T372 62Q339 62 311
76T265 120T248 190Q248 247 283 280T395 313H498L484 294V343Q484 372 465 383T414 395Q388 395 357 389T296 373L276 457Q322 474 366 482T449 491Q522 491 568 456T614 341V192Q614 167 623 158T649 148Q680 148 692 184T705 273Q705 370 673 434T583 531T442
563Q358 563 296 530T201 431T168 265Q168 177 196 116T277 22T404 -11Q437 -11 474 -4T551 16L585 -75Q535 -94 485 -104T389 -114ZM424 156Q442 156 460 168T495 201L484 166V270L498 250H436Q408 250 397 238T385 204Q385 180 396 168T424 156Z" />
<glyph unicode="A" horiz-adv-x="716" d="M675 78L631 117L713 86V0H413V86L490 114L475 90L441 206L467 184H222L241 204L205 94L201 111L272 86V0H2V86L82 116L43 82L275 705L454 710L675 78ZM265 281L254 304H439L422 277L332 616L372 615L265 281Z" />
<glyph unicode="B" horiz-adv-x="647" d="M368 349L379 365Q450 365 503 350T587 299T617 199Q617 134 585 90T491 23T338 0H30V86L119 116L97 83V620L125 585L30 616V702L263 707H356Q429 707 481 689T562 633T591 531Q591 444 535 400T368 349ZM322 586H245L271
612V395L245 419H301Q330 419 356 425T399 450T416 506Q416 541 403 558T368 580T322 586ZM322 122Q352 122 379 128T423 154T440 213Q440 250 425 268T389 293T347 299H245L271 329V96L245 122H322Z" />
<glyph unicode="C" horiz-adv-x="626" d="M337 -13Q254 -13 185 27T74 149T32 350Q32 466 72 549T186 676T361 720Q415 720 470 707T590 667L580 476H478L450 590L480 564Q448 576 420 582T368 588Q317 588 284 562T235 488T219 370Q219 287 239 233T296 152T380
126Q416 126 456 141T538 186L601 87Q537 36 469 12T337 -13Z" />
<glyph unicode="D" horiz-adv-x="709" d="M352 707Q430 707 490 686T592 621T656 515T678 367Q678 247 636 166T516 42T330 0H30V86L120 116L97 83V620L121 585L30 616V702L276 707H352ZM338 124Q364 124 391 130T441 159T478 229T492 357Q492 435 479 481T444
548T397 576T348 583H245L271 609V98L245 124H338Z" />
<glyph unicode="E" horiz-adv-x="602" d="M458 199H561L559 0H30V86L119 116L97 83V620L118 587L30 616V702L267 707H549V516H446L425 606L456 583H245L271 609V393L245 419H468V299H245L271 330V98L245 124H468L436 98L458 199Z" />
<glyph unicode="F" horiz-adv-x="561" d="M30 0V86L114 115L97 91V620L121 586L30 616V702L267 707H544L545 514H443L422 600L452 583H245L271 609V393L245 417H466V293H245L271 319V91L251 115L354 86V0H30Z" />
<glyph unicode="G" horiz-adv-x="706" d="M364 -13Q265 -13 190 28T74 151T32 350Q32 467 73 550T191 676T378 720Q438 720 501 707T631 666L620 476H518L490 589L517 566Q485 577 454 583T394 589Q339 589 300 564T240 486T219 354Q219 245 260 182T385 119Q407
119 432 124T486 138L466 103V280L493 251L399 273V362L693 367V277L611 251L627 280V44Q556 15 489 1T364 -13Z" />
<glyph unicode="H" horiz-adv-x="783" d="M30 0V86L119 116L97 83V620L125 585L30 616V702L338 707V621L246 585L271 621V396L245 423H539L512 396V620L539 585L446 616V702L753 707V621L664 586L686 621V83L664 116L753 86V0H446V86L534 116L512 83V325L539 299H245L271
325V83L250 116L338 86V0H30Z" />
<glyph unicode="I" horiz-adv-x="368" d="M338 621L254 587L271 612V91L254 115L338 86V0H30V86L112 114L97 91V612L118 586L30 616V702L338 707V621Z" />
<glyph unicode="J" horiz-adv-x="348" d="M14 702L328 707V623L243 586L261 620V132Q261 62 251 5T215 -92T144 -154T30 -176Q10 -176 -10 -174T-55 -168L-40 -46Q-30 -47 -23 -47T-8 -48Q46 -48 66 -13T87 95V620L106 588L14 616V702Z" />
<glyph unicode="K" horiz-adv-x="722" d="M675 80L629 115L710 86V0H410V86L479 115L475 86L321 333L365 299H245L271 333V83L250 119L333 86V0H30V86L115 115L97 83V621L114 590L30 616V702L333 707V623L251 589L271 625V396L245 423H378L335 396L465 619L478
594L399 616V702L682 707V621L597 589L633 618L465 347V390L675 80Z" />
<glyph unicode="L" horiz-adv-x="561" d="M441 228H543V0H30V86L116 115L97 83V620L116 588L30 616V702L343 707V621L254 588L271 620V98L245 124H439L416 97L441 228Z" />
<glyph unicode="M" horiz-adv-x="864" d="M834 621L744 585L767 629V83L744 116L834 86V0H541V86L635 117L607 83V524L634 523L473 183L365 178L211 524H236V83L218 114L303 86V0H30V86L120 116L97 83V629L120 586L30 616V702L310 707L449 352H429L577 702L834 707V621Z" />
<glyph unicode="N" horiz-adv-x="762" d="M467 702L744 707V621L654 586L677 621V0H477L216 524H240V83L215 117L307 86V0H30V86L122 117L97 83V620L113 589L30 616V702L303 707L559 195H534V620L559 586L467 616V702Z" />
<glyph unicode="O" horiz-adv-x="726" d="M348 -13Q248 -13 178 27T70 148T32 343Q32 437 56 507T124 625T231 696T371 720Q447 720 507 697T609 629T673 518T695 368Q695 250 653 165T533 33T348 -13ZM360 119Q404 119 437 140T489 214T508 360Q508 446 491 496T442
567T363 588Q319 588 287 568T237 495T219 349Q219 265 235 215T282 142T360 119Z" />
<glyph unicode="P" horiz-adv-x="618" d="M309 240H236L271 266V83L247 115L358 86V0H30V86L123 117L97 83V622L127 586L30 616V702L274 707H354Q440 707 494 677T574 597T600 483Q600 416 570 361T475 273T309 240ZM327 584H245L271 610V338L236 364H309Q366
364 394 396T423 480Q423 528 399 556T327 584Z" />
<glyph unicode="Q" horiz-adv-x="730" d="M658 -203Q619 -203 574 -182T466 -116T308 0L346 -13Q247 -12 177 29T70 149T32 344Q32 437 56 507T124 624T232 696T372 720Q450 720 510 697T612 629T676 519T698 368Q698 272 670 197T587 72T458 2L463 21Q514 -10
549 -29T611 -58T660 -67Q686 -67 711 -57T768 -29L828 -134Q774 -167 735 -185T658 -203ZM219 349Q219 266 234 215T282 142T362 119Q413 119 446 143T495 220T512 361Q512 444 496 494T447 566T365 588Q316 588 284 565T235 489T219 349Z" />
<glyph unicode="R" horiz-adv-x="672" d="M30 0V86L118 116L97 83V619L127 584L30 616V702L278 707H365Q489 707 552 656T615 508Q615 423 564 367T399 296L400 316Q439 316 464 306T506 279T536 236L613 90L565 121L660 86V0H476L386 190Q370 227 359 246T332
271T287 276L243 275L271 299V83L249 116L342 86V0H30ZM271 352L243 395H319Q379 395 408 420T438 496Q438 537 415 560T343 584H243L271 610V352Z" />
<glyph unicode="S" horiz-adv-x="602" d="M214 527Q214 502 233 485T283 456T353 431T429 403T498 362T549 300T569 210Q569 132 529 83T422 10T275 -14Q220 -14 162 -4T48 28L54 230H153L177 112L161 139Q189 126 221 119T283 112Q315 112 341 120T383 145T399
187Q399 215 380 232T330 262T260 286T185 312T116 352T65 412T46 504Q46 578 81 625T176 696T313 720Q366 720 425 709T543 676L532 490H429L405 594L423 577Q400 585 375 589T323 594Q294 594 269 588T229 566T214 527Z" />
<glyph unicode="T" horiz-adv-x="625" d="M148 0V86L256 117L226 74V609L260 583H111L149 616L120 490H17V707H608V490H506L478 609L515 583H365L400 609V74L371 117L477 86V0H148Z" />
<glyph unicode="U" horiz-adv-x="739" d="M419 702L726 707V621L641 587L659 629V280Q659 223 648 177T614 95T555 36T473 -1T364 -13Q279 -13 225 7T141 62T99 134T83 207T80 266V629L99 588L13 616V702L321 707V621L238 587L254 629V266Q254 239 256 217T265
176T283 145T316 126T367 119Q398 119 418 126T452 147T473 180T483 225T485 280V629L500 590L419 616V702Z" />
<glyph unicode="V" horiz-adv-x="717" d="M261 0L52 616L92 586L4 616V702L315 707V621L224 590L244 632L381 151H357L509 621L523 587L439 616V702L715 707V621L627 591L666 620L446 0H261Z" />
<glyph unicode="W" horiz-adv-x="1020" d="M746 702L1018 707V621L929 591L968 636L790 0H626L490 499L521 498L379 0H217L55 621L69 594L3 616V702L289 707V621L211 590L232 621L330 155H294L438 702L597 707L737 157L702 156L816 621L830 590L746 616V702Z" />
<glyph unicode="X" horiz-adv-x="717" d="M675 79L625 115L702 86V0H391V86L464 113L470 87L320 288L360 290L207 80L199 117L278 86V0H16V86L93 116L48 78L275 373L274 330L60 620L99 595L27 616V702L333 707V621L263 594L270 615L404 428L366 436L496 615L505
591L432 616V702L691 707V621L614 584L655 620L443 342L448 384L675 79Z" />
<glyph unicode="Y" horiz-adv-x="651" d="M165 0V86L258 117L235 83V279L250 222L44 614L75 588L2 616V702L291 707V621L211 594L224 623L353 341H321L453 616L465 587L382 616V702L649 707V621L575 594L606 619L397 222L409 279V83L386 117L479 86V0H165Z" />
<glyph unicode="Z" horiz-adv-x="627" d="M29 0V115L397 601L415 581H141L180 599L154 491H52V707H585V593L219 100L213 126H500L465 102L485 216H589L588 0H29Z" />
<glyph unicode="[" horiz-adv-x="349" d="M71 -114V866L342 861V759L216 750V2L342 -6V-109L71 -114Z" />
<glyph unicode="\" horiz-adv-x="367" d="M-7 810H115L374 -87H254L-7 810Z" />
<glyph unicode="]" horiz-adv-x="349" d="M278 866V-114L7 -109V-6L133 2V750L7 759V861L278 866Z" />
<glyph unicode="^" horiz-adv-x="544" d="M15 537L210 891H333L529 537H373L229 828H310L167 537H15Z" />
<glyph unicode="_" horiz-adv-x="490" d="M491 -56V-163H-1V-56H491Z" />
<glyph unicode="`" horiz-adv-x="364" d="M111 855L333 685L270 599L25 739L111 855Z" />
<glyph unicode="a" horiz-adv-x="568" d="M500 84L477 118L561 86V0L367 -9L346 86L356 83Q320 35 275 11T178 -13Q109 -13 67 30T24 150Q24 206 48 240T121 291T241 307H339L330 297V348Q330 390 311 408T251 427Q233 427 212 424T166 414L181 431L166 354H62L54
511Q127 531 187 540T298 550Q398 550 449 509T500 379V84ZM194 169Q194 137 209 122T247 106Q268 106 291 118T336 152L330 129V236L340 225H269Q227 225 211 212T194 169Z" />
<glyph unicode="b" horiz-adv-x="595" d="M249 -13Q207 -13 160 -9T58 6V702L84 658L-3 687V772L228 782V451L207 476Q242 510 284 530T374 550Q433 550 477 520T546 429T571 280Q571 219 556 166T506 72T407 10T249 -13ZM279 106Q342 106 368 149T395 266Q395
315 385 351T355 407T307 427Q284 427 260 415T208 378L228 428V77L208 116Q249 106 279 106Z" />
<glyph unicode="c" horiz-adv-x="518" d="M273 -13Q202 -13 145 19T54 114T21 265Q21 347 45 401T110 489T200 536T301 550Q354 550 404 538T484 512L480 355H373L357 431L370 422Q359 426 341 428T306 431Q267 431 243 412T209 357T198 274Q198 220 212 184T252
129T312 111Q342 111 376 123T451 159L506 73Q449 29 391 8T273 -13Z" />
<glyph unicode="d" horiz-adv-x="609" d="M222 -13Q164 -13 120 17T50 108T24 255Q24 407 101 478T321 550Q339 550 358 549T398 544L368 526V673L379 658L302 687V772L537 782V93L518 116L598 86V0L405 -9L383 78L401 73Q357 30 314 9T222 -13ZM289 110Q311 110
335 122T387 159L368 109V459L388 420Q347 431 315 431Q253 431 227 388T201 271Q201 222 211 186T241 130T289 110Z" />
<glyph unicode="e" horiz-adv-x="550" d="M274 -13Q199 -13 142 17T54 108T23 258Q23 350 56 415T150 515T295 550Q376 550 427 519T501 434T525 311Q525 292 524 272T517 231H162V324H374L350 307Q351 346 345 373T324 415T281 430Q248 430 230 410T205 356T197
284Q197 236 207 197T243 135T315 111Q346 111 383 122T462 156L518 68Q458 27 396 7T274 -13Z" />
<glyph unicode="f" horiz-adv-x="387" d="M28 0V86L103 111L89 94V438L103 421H24V511L107 536L89 512V567Q89 681 150 735T315 790Q345 790 376 786T442 771L418 659Q401 664 382 668T345 672Q309 672 284 652T258 581V512L237 532H376L373 421H243L258 438V95L244
111L331 86V0H28Z" />
<glyph unicode="g" horiz-adv-x="581" d="M259 -243Q130 -243 68 -211T5 -112Q5 -61 41 -28T148 25L146 -10Q104 -6 77 13T50 64Q50 74 53 85T66 113T90 151T129 205L130 178Q77 202 50 245T22 347Q22 443 88 496T273 550Q362 550 422 521L384 528L556 533L557
445L485 429L495 445Q506 429 513 408T520 357Q520 263 452 208T267 153Q218 153 170 165L191 181L181 85L161 96H363Q465 96 518 56T571 -61Q571 -150 493 -196T259 -243ZM272 -128Q346 -128 378 -115T410 -76Q410 -51 391 -40T337 -28H155L192 -19Q152 -46 152
-82Q152 -105 180 -116T272 -128ZM268 266Q309 266 330 288T352 354Q352 398 332 418T272 438Q232 438 212 418T191 353Q191 310 210 288T268 266Z" />
<glyph unicode="h" horiz-adv-x="635" d="M11 0V86L92 113L72 89V686L92 659L11 687V772L242 782V448L204 455Q251 503 305 526T408 550Q453 550 489 531T547 474T568 378V89L553 112L628 86V0H345V86L416 111L398 86V341Q398 383 380 402T332 422Q310 422 284
410T231 374L242 398V86L228 110L295 86V0H11Z" />
<glyph unicode="i" horiz-adv-x="328" d="M256 97L245 111L317 86V0H25V86L97 111L86 97V434L96 424L25 448V533L256 541V97ZM168 604Q125 604 99 628T72 699Q72 747 99 770T169 794Q210 794 237 771T264 699Q264 652 237 628T168 604Z" />
<glyph unicode="j" horiz-adv-x="301" d="M7 -243Q-13 -243 -30 -241T-69 -236L-56 -117Q-44 -118 -34 -119T-15 -120Q32 -120 52 -101T73 -32V441L88 422L12 448V533L243 541V19Q243 -55 225 -105T175 -185T100 -229T7 -243ZM149 604Q106 604 80 628T53 699Q53
747 80 770T150 794Q191 794 218 771T245 699Q245 652 218 628T149 604Z" />
<glyph unicode="k" horiz-adv-x="607" d="M11 0V86L92 113L72 83V681L83 663L11 687V772L242 782V324L215 348H338L298 329L379 450L391 433L327 447V532L582 542V456L502 436L546 461L424 285L427 327L550 86L527 108L599 86V0H419L302 247L326 236H215L242 247V83L226
114L299 86V0H11Z" />
<glyph unicode="l" horiz-adv-x="314" d="M242 97L231 111L303 86V0H11V86L83 111L72 97V674L82 664L11 687V772L242 782V97Z" />
<glyph unicode="m" horiz-adv-x="954" d="M556 462L533 454Q580 502 633 526T735 550Q799 550 843 508T887 379V89L872 112L947 86V0H668V86L735 111L717 86V341Q717 383 701 402T659 422Q638 422 612 410T558 372L570 408Q571 400 571 395T571 385V89L557 112L620
86V0H353V86L420 111L402 86V341Q402 383 386 402T343 422Q322 422 297 410T245 375L256 397V86L241 110L304 86V0H25V86L106 113L86 89V447L106 420L25 448V533L218 542L239 448L218 455Q264 502 317 526T420 550Q465 550 501 529T556 462Z" />
<glyph unicode="n" horiz-adv-x="649" d="M25 0V86L106 113L86 89V447L106 420L25 448V533L218 542L239 448L218 455Q266 503 320 526T423 550Q490 550 536 507T581 376V89L567 112L642 86V0H359V86L430 111L412 86V341Q412 383 394 402T347 422Q324 422 298 410T245
375L256 398V86L241 110L308 86V0H25Z" />
<glyph unicode="o" horiz-adv-x="577" d="M296 550Q420 550 487 480T555 278Q555 187 522 122T426 22T278 -13Q155 -13 89 57T22 259Q22 351 54 416T148 515T296 550ZM289 431Q241 431 220 393T199 267Q199 180 219 143T286 106Q319 106 339 123T368 177T378 271Q378
357 357 394T289 431Z" />
<glyph unicode="p" horiz-adv-x="615" d="M17 -230V-144L99 -113L78 -140V442L97 420L17 448V533L210 542L229 455L211 465Q257 507 301 528T394 550Q453 550 497 520T566 430T591 284Q591 185 558 119T464 20T323 -14Q300 -14 277 -11T228 -2L248 16V-140L232
-116L320 -144V-230H17ZM300 106Q363 106 389 149T415 266Q415 315 405 351T375 407T327 427Q304 427 280 415T228 378L248 421V85L228 117Q269 106 300 106Z" />
<glyph unicode="q" horiz-adv-x="595" d="M292 -230V-140L385 -109L368 -137V62L401 73Q357 29 314 8T222 -14Q164 -14 120 16T50 107T24 255Q24 366 63 431T172 523T335 550Q381 550 432 545T537 529V-137L519 -109L598 -140V-230H292ZM289 110Q311 110 335 122T387
159L368 109V459L388 420Q347 431 315 431Q253 431 227 388T201 271Q201 222 211 186T241 130T289 110Z" />
<glyph unicode="r" horiz-adv-x="484" d="M25 0V86L101 111L86 87V447L104 420L25 448V533L218 542L239 449L218 454Q264 501 308 525T401 550Q433 550 470 540L461 336H363L347 446L362 414Q357 416 352 417T340 418Q313 418 287 401T243 360L256 404V87L237
111L333 86V0H25Z" />
<glyph unicode="s" horiz-adv-x="506" d="M204 398Q204 378 224 366T275 345T343 325T410 297T462 250T482 175Q482 110 448 69T355 7T223 -14Q179 -14 131 -7T33 14L40 172H145L158 88L144 111Q163 104 186 101T226 98Q247 98 267 102T299 117T311 143Q311 164
292 176T241 197T174 216T108 245T57 295T37 376Q37 438 67 476T149 533T266 551Q311 551 359 544T460 522L453 378H347L329 455L352 431Q307 441 274 441Q243 441 224 430T204 398Z" />
<glyph unicode="t" horiz-adv-x="412" d="M228 -13Q152 -13 114 32T75 168V447L96 426H3V515L98 544L75 515V654L245 685V515L228 537H379L376 426H228L245 447V191Q245 149 258 130T298 111Q313 111 331 115T373 128L404 37Q313 -13 228 -13Z" />
<glyph unicode="u" horiz-adv-x="637" d="M226 -13Q159 -13 113 31T67 165V444L82 421L6 448V533L237 541V192Q237 153 254 134T301 115Q323 115 349 126T403 162L393 134V448L407 421L332 448V533L563 542V87L543 115L623 86V0L430 -9L408 89L431 82Q382 34 329
11T226 -13Z" />
<glyph unicode="v" horiz-adv-x="553" d="M321 532L556 542V456L506 428L527 452L366 -2H167L30 447L52 428L-4 447V532L253 542V456L190 432L202 452L287 105H274L372 443L381 431L321 447V532Z" />
<glyph unicode="w" horiz-adv-x="848" d="M634 532L852 542V456L793 434L814 451L693 -2H510L412 407L444 406L331 -2H148L36 444L53 430L-4 447V532L243 542V456L179 435L196 447L267 99H240L351 533L522 542L622 93H597L677 443L691 428L634 447V532Z" />
<glyph unicode="x" horiz-adv-x="576" d="M11 0V86L92 105L52 83L205 293L245 294L406 532L555 542V456L471 432L519 459L368 261L331 260L160 0H11ZM281 0V86L341 98L332 76L215 239L55 457L88 428L22 447V532L287 542V456L225 440L237 465L335 326L516 84L489
107L566 86V0H281Z" />
<glyph unicode="y" horiz-adv-x="569" d="M5 -235L20 -116Q38 -119 53 -120T82 -121Q123 -121 149 -106T195 -59T236 27L229 -28L35 445L49 431L-6 447V532L257 542V456L197 436L205 450L321 100L280 109L378 446L386 431L326 447V532L573 542V456L513 435L535
448L375 3Q353 -57 327 -103T268 -180T192 -227T93 -243Q53 -243 5 -235Z" />
<glyph unicode="z" horiz-adv-x="515" d="M486 186L487 0H31V98L311 456L333 424H106L151 459L137 362H35L34 537H474V439L190 68L186 113H396L354 67L383 186H486Z" />
<glyph unicode="{" horiz-adv-x="372" d="M287 -114Q189 -114 144 -64T99 85V215Q99 264 80 292T8 320V432Q64 432 81 460T99 537V667Q99 766 144 816T287 866H358V764Q312 764 289 755T257 722T248 658V521Q248 466 226 433T164 384T70 368V384Q124 384 163 369T225
320T248 232V94Q248 53 256 30T288 -2T358 -11V-114H287Z" />
<glyph unicode="|" horiz-adv-x="303" d="M87 815H216V-111H87V815Z" />
<glyph unicode="}" horiz-adv-x="372" d="M85 -114Q183 -114 228 -64T273 85V215Q273 264 292 292T363 320V432Q308 432 291 460T273 537V667Q273 766 228 816T85 866H14V764Q59 764 83 755T115 722T124 658V521Q124 466 146 433T207 384T301 368V384Q247 384
208 369T146 320T124 232V94Q124 53 116 30T83 -2T14 -11V-114H85Z" />
<glyph unicode="~" horiz-adv-x="579" d="M390 265Q362 265 335 274T283 296T235 318T187 328Q166 328 145 318T101 279L34 322Q70 395 108 423T190 451Q219 451 246 442T298 420T347 397T395 387Q416 387 436 398T478 436L545 392Q509 321 471 293T390 265Z" />
<glyph unicode="&#xa0;" horiz-adv-x="170" />
<glyph unicode="&#xa1;" horiz-adv-x="316" d="M219 277L247 -180H68L95 269L219 277ZM251 449Q251 409 223 384T158 359Q115 359 90 384T65 449Q65 491 92 515T158 540Q201 540 226 516T251 449Z" />
<glyph unicode="&#xa2;" horiz-adv-x="516" d="M485 181Q436 143 386 124T286 101L332 134V-22H220V131L271 101Q201 100 148 130T64 219T33 359Q33 446 65 501T150 584T265 617L220 584V739H332V589L270 616Q307 620 344 615T413 601T465 582L460 440H365L352
501Q341 505 326 506T299 508Q262 508 239 490T206 440T195 366Q195 315 207 282T244 231T304 214Q332 214 365 225T434 260L485 181Z" />
<glyph unicode="&#xa3;" horiz-adv-x="640" d="M44 0V86L149 122L101 84Q123 103 131 132T139 198Q139 231 135 268T125 347L148 317H44V407L132 420L119 394Q116 423 114 453T111 506Q111 589 143 635T230 701T354 720Q403 720 458 712T571 687L560 508H457L435
607L449 584Q428 590 408 593T371 596Q332 596 309 576T286 506Q286 488 288 457T293 399L266 420H447V317H276L299 354Q303 328 305 304T308 256Q308 213 296 176T248 106L229 124H476L452 97L477 215H580V0H44Z" />
<glyph unicode="&#xa4;" horiz-adv-x="647" d="M606 116L525 29L413 134L475 137Q446 113 408 99T322 84Q273 84 234 99T168 142L237 145L117 32L44 110L160 219L158 151Q132 178 118 214T104 291Q104 333 118 369T158 438L147 380L37 481L120 569L235 462L177
454Q207 476 244 489T329 502Q375 502 411 490T472 457L417 461L528 565L601 487L489 382L484 447Q514 418 529 380T545 299Q545 259 531 222T490 156L489 225L606 116ZM324 184Q354 184 372 197T399 236T408 294Q409 345 390 374T326 403Q297 403 278 390T249
351T240 292Q240 243 260 214T324 184Z" />
<glyph unicode="&#xa5;" horiz-adv-x="683" d="M95 298V377H214L202 351L61 614L92 588L23 616V702L308 707V621L228 594L237 623L367 347H338L471 616L483 587L400 616V702L662 707V621L592 594L624 619L479 347L465 377H584V298H95ZM186 0V86L276 117L253 83V199L280
173H95V252H584V173H394L427 202V83L403 117L494 86V0H186Z" />
<glyph unicode="&#xa6;" horiz-adv-x="303" d="M87 436V815H216V436H87ZM87 -111V268H216V-111H87Z" />
<glyph unicode="&#xa7;" horiz-adv-x="541" d="M238 -183Q198 -183 153 -177T62 -157L68 -7H170L183 -87L169 -64Q186 -71 203 -74T236 -78Q269 -78 293 -64T317 -19Q317 8 298 28T247 66T182 103T116 145T66 201T46 279Q46 332 74 365T150 415T257 434L273 389Q256
387 237 374T205 340T192 296Q192 268 212 247T265 206T333 167T401 123T454 66T474 -15Q474 -70 443 -107T359 -164T238 -183ZM267 103L262 149Q280 152 301 165T336 200T351 244Q351 273 331 294T279 333T211 372T144 417T92 477T72 559Q72 639 131 679T287 719Q328
719 374 712T469 692L463 554H360L343 629L365 604Q349 609 333 611T300 614Q268 614 247 601T226 560Q226 532 246 512T297 474T363 437T429 395T480 341T500 266Q500 213 469 178T385 124T267 103Z" />
<glyph unicode="&#xa8;" horiz-adv-x="473" d="M351 614Q313 614 292 636T270 699Q270 739 293 762T351 785Q390 785 411 762T433 699Q433 659 409 637T351 614ZM120 614Q82 614 62 636T40 699Q39 739 62 762T120 785Q158 785 180 762T202 699Q202 659 178 637T120 614Z" />
<glyph unicode="&#xa9;" horiz-adv-x="843" d="M415 147Q333 147 281 200T229 350Q229 419 256 465T328 534T430 558Q499 558 569 526L566 416H488L478 469L484 463Q477 466 464 467T440 469Q396 469 379 438T361 358Q361 297 383 268T443 239Q465 239 491 247T544
275L585 211Q543 177 499 162T415 147ZM409 -13Q329 -13 263 13T148 87T72 201T45 346Q45 428 73 496T153 615T273 692T424 720Q503 720 570 694T689 620T768 507T796 362Q796 281 767 213T684 93T561 15T409 -13ZM417 77Q476 77 525 97T610 155T665 243T685 354Q685
435 651 497T557 595T416 630Q336 630 278 595T189 498T157 354Q157 273 188 211T278 113T417 77Z" />
<glyph unicode="&#xaa;" horiz-adv-x="439" d="M381 382L363 407L425 383V321L281 315L265 383L273 380Q247 347 213 329T139 311Q87 311 55 343T23 430Q23 470 41 494T95 531T185 543H260L252 536V575Q252 604 238 617T193 631Q180 631 164 629T129 621L139 634L128
581H50L43 692Q98 706 145 713T228 720Q304 720 342 690T381 597V382ZM151 444Q151 423 161 411T190 399Q205 399 223 406T257 426L252 414V494L261 486H206Q194 486 185 484T167 478T155 465T151 444ZM27 139V254H425V139H27Z" />
<glyph unicode="&#xab;" horiz-adv-x="555" d="M209 38L40 228V310L211 501L290 442L158 238V302L288 101L209 38ZM444 38L275 228V310L446 501L525 442L393 238V302L523 101L444 38Z" />
<glyph unicode="&#xac;" horiz-adv-x="583" d="M392 114V309L409 291H38V410H528V114H392Z" />
<glyph unicode="&#xad;" horiz-adv-x="433" d="M636 357V229H310V357H636Z" />
<glyph unicode="&#xae;" horiz-adv-x="691" d="M199 305V350L241 365L229 348V569L246 550L199 565V609L327 613H361Q418 613 448 590T479 525Q479 491 455 468T377 438L384 451Q411 451 426 442T451 412L483 349L455 364L499 350V305H409L372 394Q366 408 359
414T344 422T323 425H302L317 438V348L305 365L350 350V305H199ZM317 466L302 479H332Q359 479 372 489T386 518Q386 535 376 543T342 552H302L317 566V466ZM336 155Q250 155 183 192T77 296T39 448Q39 538 79 607T190 715T349 755Q436 755 504 718T613 614T653
462Q653 396 629 340T561 242T461 178T336 155ZM339 224Q405 224 458 254T541 337T572 461Q572 528 543 578T463 657T348 685Q282 685 231 655T150 573T120 450Q120 383 148 332T225 253T339 224Z" />
<glyph unicode="&#xaf;" horiz-adv-x="427" d="M373 772V656H54V772H373Z" />
<glyph unicode="&#xb0;" horiz-adv-x="439" d="M204 412Q128 412 80 455T31 578Q31 627 53 664T114 723T204 744Q281 744 329 700T377 582Q377 504 329 458T204 412ZM204 503Q234 503 250 522T266 581Q266 619 249 636T204 653Q177 653 160 636T143 581Q143 542
159 523T204 503Z" />
<glyph unicode="&#xb1;" horiz-adv-x="571" d="M248 493L221 466V656H349V466L323 493H519V373H323L349 400V210H221V400L248 373H52L51 493H248ZM519 152V32H52V152H519Z" />
<glyph unicode="&#xb2;" horiz-adv-x="374" d="M24 345V442Q83 483 122 518T182 585T203 642Q203 665 193 675T161 685Q134 685 110 674L127 698L116 629H31L22 766Q65 776 105 782T184 788Q255 788 301 760T347 666Q347 628 330 594T285 532T228 480T173 441L171
452H351V345H24Z" />
<glyph unicode="&#xb3;" horiz-adv-x="375" d="M165 334Q126 334 86 343T8 368L48 455Q74 446 101 440T151 434Q178 434 196 444T215 478Q215 499 202 508T157 518H94V605H148Q181 605 195 616T210 650Q210 674 195 684T155 694Q142 694 127 692T98 685L119 703L111
646H26L20 760Q60 774 102 780T184 787Q230 787 268 776T328 740T351 674Q351 623 318 597T238 567L231 573Q296 568 326 542T357 470Q357 424 331 394T261 349T165 334Z" />
<glyph unicode="&#xb4;" horiz-adv-x="363" d="M112 599L55 680L275 852L359 739L112 599Z" />
<glyph unicode="&#xb5;" horiz-adv-x="660" d="M141 100L180 49Q190 23 205 -14T232 -103T244 -230H74V444L88 421L13 448V533L244 540V185Q244 149 260 132T304 115Q327 115 355 127T410 165L399 140V448L414 421L339 448V533L569 541V87L550 116L630 86V0L437
-9L414 89L432 82Q388 36 344 12T259 -13Q218 -13 187 14T141 100Z" />
<glyph unicode="&#xb6;" horiz-adv-x="666" d="M142 -170V-84L231 -54L209 -87V314L233 292Q170 292 121 317T45 388T17 500Q17 562 44 608T121 681T233 707H635V621L545 586L568 621V-170H427V622L454 583H325L350 623V-170H142Z" />
<glyph unicode="&#xb7;" horiz-adv-x="243" d="M28 323Q28 365 56 389T122 414Q165 414 190 390T215 323Q215 282 187 258T122 233Q79 233 54 257T28 323Z" />
<glyph unicode="&#xb8;" horiz-adv-x="322" d="M140 -264Q110 -264 80 -258T22 -238L53 -158Q73 -165 97 -170T139 -175Q158 -175 170 -169T182 -149Q182 -137 167 -130T128 -118T77 -112L84 0H183V-44Q241 -50 271 -77T302 -145Q302 -185 279 -211T220 -251T140 -264Z" />
<glyph unicode="&#xb9;" horiz-adv-x="303" d="M240 414L220 441L303 414V345H31V414L127 437L108 414V663L144 664L35 607L-4 689L134 777H240V414Z" />
<glyph unicode="&#xba;" horiz-adv-x="468" d="M224 311Q133 311 81 363T29 509Q29 575 54 622T126 694T241 720Q334 720 386 669T439 526Q439 460 413 412T339 337T224 311ZM47 139V254H422V139H47ZM232 406Q255 406 269 418T291 456T298 520Q298 575 283 600T234
626Q200 626 185 599T170 516Q170 459 185 433T232 406Z" />
<glyph unicode="&#xbb;" horiz-adv-x="555" d="M346 501L515 310V228L344 38L265 97L397 300V236L266 438L346 501ZM111 501L280 310V228L110 38L30 97L163 300V236L32 438L111 501Z" />
<glyph unicode="&#xbc;" horiz-adv-x="929" d="M246 345L226 372L309 345V276H37V345L133 368L114 345V594L150 595L41 538L2 620L140 708H246V345ZM179 -11L587 718H720L311 -11H179ZM721 108L736 81H536L520 178L685 439L857 429V156L826 175H908V81H826L857
108V0H721V108ZM739 175L721 156V363L740 362L603 139L586 175H739Z" />
<glyph unicode="&#xbd;" horiz-adv-x="953" d="M257 345L237 372L320 345V276H48V345L144 368L125 345V594L161 595L52 538L13 620L151 708H257V345ZM190 -11L598 718H731L322 -11H190ZM595 0V97Q654 138 693 173T753 240T774 297Q774 320 764 330T732 340Q705
340 681 329L698 353L687 284H602L593 421Q636 431 676 437T755 443Q826 443 872 415T918 321Q918 283 901 249T856 187T799 135T744 96L742 107H922V0H595Z" />
<glyph unicode="&#xbe;" horiz-adv-x="962" d="M165 265Q126 265 86 274T8 299L48 386Q74 377 101 371T151 365Q178 365 196 375T215 409Q215 430 202 439T157 449H94V536H148Q181 536 195 547T210 581Q210 605 195 615T155 625Q142 625 127 623T98 616L119 634L111
577H26L20 691Q60 705 102 711T184 718Q230 718 268 707T328 671T351 605Q351 554 318 528T238 498L231 504Q296 499 326 473T357 401Q357 355 331 325T261 280T165 265ZM212 -11L620 718H753L344 -11H212ZM755 108L770 81H570L554 178L719 439L891 429V156L860
175H942V81H860L891 108V0H755V108ZM773 175L755 156V363L774 362L637 139L620 175H773Z" />
<glyph unicode="&#xbf;" horiz-adv-x="447" d="M327 285Q332 269 333 254T335 224Q335 185 319 159T280 115T232 81T191 46T175 1Q175 -30 198 -44T257 -59Q286 -59 322 -51T393 -30L429 -140Q317 -186 207 -186Q150 -186 103 -171T28 -121T0 -29Q0 20 20 53T69
111T128 156T178 200T198 257Q198 261 198 267T197 278L327 285ZM344 461Q344 419 317 394T248 369Q208 369 183 393T158 458Q158 501 185 525T253 550Q293 550 318 526T344 461Z" />
<glyph unicode="&#xc0;" horiz-adv-x="716" d="M675 78L631 117L713 86V0H413V86L490 114L475 90L441 206L467 184H222L241 204L205 94L201 111L272 86V0H2V86L82 116L43 82L275 705L454 710L675 78ZM265 281L254 304H439L422 277L332 616L372 615L265 281ZM477
754L213 854L278 980L521 846L477 754Z" />
<glyph unicode="&#xc1;" horiz-adv-x="716" d="M675 78L631 117L713 86V0H413V86L490 114L475 90L441 206L467 184H222L241 204L205 94L201 111L272 86V0H2V86L82 116L43 82L275 705L454 710L675 78ZM265 281L254 304H439L422 277L332 616L372 615L265 281ZM263
754L216 845L462 980L524 854L263 754Z" />
<glyph unicode="&#xc2;" horiz-adv-x="716" d="M675 78L631 117L713 86V0H413V86L490 114L475 90L441 206L467 184H222L241 204L205 94L201 111L272 86V0H2V86L82 116L43 82L275 705L454 710L675 78ZM265 281L254 304H439L422 277L332 616L372 615L265 281ZM216
750L162 816L310 952L406 961L567 816L511 750L301 876L419 874L216 750Z" />
<glyph unicode="&#xc3;" horiz-adv-x="716" d="M675 78L631 117L713 86V0H413V86L490 114L475 90L441 206L467 184H222L241 204L205 94L201 111L272 86V0H2V86L82 116L43 82L275 705L454 710L675 78ZM265 281L254 304H439L422 277L332 616L372 615L265 281ZM233
776L164 807Q184 875 212 905T280 936Q307 936 334 925T386 903T431 892Q449 892 463 903T492 938L563 908Q542 839 511 809T438 778Q412 778 385 789T333 810T289 821Q273 821 261 810T233 776Z" />
<glyph unicode="&#xc4;" horiz-adv-x="716" d="M675 78L631 117L713 86V0H413V86L490 114L475 90L441 206L467 184H222L241 204L205 94L201 111L272 86V0H2V86L82 116L43 82L275 705L454 710L675 78ZM265 281L254 304H439L422 277L332 616L372 615L265 281ZM479
759Q441 759 420 781T398 844Q398 884 421 907T479 930Q518 930 539 907T561 844Q561 804 537 782T479 759ZM248 759Q210 759 190 781T168 844Q167 884 190 907T248 930Q286 930 308 907T330 844Q330 804 306 782T248 759Z" />
<glyph unicode="&#xc5;" horiz-adv-x="716" d="M675 78L631 117L713 86V0H413V86L490 114L475 90L441 206L467 184H222L241 204L205 94L201 111L272 86V0H2V86L82 116L43 82L275 705L454 710L675 78ZM265 281L254 304H439L422 277L332 616L372 615L265 281ZM363
731Q315 731 282 749T232 797T215 864Q215 901 232 931T283 980T366 999Q414 999 446 982T496 934T513 866Q513 830 496 799T446 750T363 731ZM363 807Q389 807 401 823T413 866Q413 891 402 907T364 923Q339 923 327 907T315 864Q315 839 326 823T363 807Z" />
<glyph unicode="&#xc6;" horiz-adv-x="941" d="M1 0V86L84 116L39 80L279 610L297 584L199 616V702L444 707H886V516H784L760 614L791 583H587L613 609V395L587 421H806V302H587L613 332V97L587 124H803L773 94L797 199H899L897 0H381V86L461 118L439 90V223L466
196H228L264 223L201 79L192 116L271 86V0H1ZM293 294L274 316H466L439 294V600L466 583H394L427 599L293 294Z" />
<glyph unicode="&#xc7;" horiz-adv-x="626" d="M337 -13Q254 -13 185 27T74 149T32 350Q32 466 72 549T186 676T361 720Q415 720 470 707T590 667L580 476H478L450 590L480 564Q448 576 420 582T368 588Q317 588 284 562T235 488T219 370Q219 287 239 233T296
152T380 126Q416 126 456 141T538 186L601 87Q537 36 469 12T337 -13ZM345 -264Q315 -264 285 -258T227 -238L258 -158Q278 -165 302 -170T344 -175Q363 -175 375 -169T387 -149Q387 -137 372 -130T333 -118T282 -112L289 0H388V-44Q446 -50 476 -77T507 -145Q507
-185 484 -211T425 -251T345 -264Z" />
<glyph unicode="&#xc8;" horiz-adv-x="602" d="M458 199H561L559 0H30V86L119 116L97 83V620L118 587L30 616V702L267 707H549V516H446L425 606L456 583H245L271 609V393L245 419H468V299H245L271 330V98L245 124H468L436 98L458 199ZM422 754L158 854L223 980L466
846L422 754Z" />
<glyph unicode="&#xc9;" horiz-adv-x="602" d="M458 199H561L559 0H30V86L119 116L97 83V620L118 587L30 616V702L267 707H549V516H446L425 606L456 583H245L271 609V393L245 419H468V299H245L271 330V98L245 124H468L436 98L458 199ZM207 754L160 845L406 980L468
854L207 754Z" />
<glyph unicode="&#xca;" horiz-adv-x="602" d="M458 199H561L559 0H30V86L119 116L97 83V620L118 587L30 616V702L267 707H549V516H446L425 606L456 583H245L271 609V393L245 419H468V299H245L271 330V98L245 124H468L436 98L458 199ZM160 750L106 816L254 952L350
961L511 816L455 750L245 876L363 874L160 750Z" />
<glyph unicode="&#xcb;" horiz-adv-x="602" d="M458 199H561L559 0H30V86L119 116L97 83V620L118 587L30 616V702L267 707H549V516H446L425 606L456 583H245L271 609V393L245 419H468V299H245L271 330V98L245 124H468L436 98L458 199ZM423 759Q385 759 364 781T342
844Q342 884 365 907T423 930Q462 930 483 907T505 844Q505 804 481 782T423 759ZM192 759Q154 759 134 781T112 844Q111 884 134 907T192 930Q230 930 252 907T274 844Q274 804 250 782T192 759Z" />
<glyph unicode="&#xcc;" horiz-adv-x="368" d="M338 621L254 587L271 612V91L254 115L338 86V0H30V86L112 114L97 91V612L118 586L30 616V702L338 707V621ZM297 754L33 854L98 980L341 846L297 754Z" />
<glyph unicode="&#xcd;" horiz-adv-x="368" d="M338 621L254 587L271 612V91L254 115L338 86V0H30V86L112 114L97 91V612L118 586L30 616V702L338 707V621ZM338 754L291 845L537 980L599 854L338 754Z" />
<glyph unicode="&#xce;" horiz-adv-x="368" d="M338 621L254 587L271 612V91L254 115L338 86V0H30V86L112 114L97 91V612L118 586L30 616V702L338 707V621ZM291 750L237 816L385 952L481 961L642 816L586 750L376 876L494 874L291 750Z" />
<glyph unicode="&#xcf;" horiz-adv-x="368" d="M338 621L254 587L271 612V91L254 115L338 86V0H30V86L112 114L97 91V612L118 586L30 616V702L338 707V621ZM298 759Q260 759 239 781T217 844Q217 884 240 907T298 930Q337 930 358 907T380 844Q380 804 356 782T298
759ZM67 759Q29 759 9 781T-13 844Q-14 884 9 907T67 930Q105 930 127 907T149 844Q149 804 125 782T67 759Z" />
<glyph unicode="&#xd0;" horiz-adv-x="709" d="M30 303V416H383V303H30ZM352 707Q430 707 490 686T592 621T656 515T678 367Q678 247 636 166T516 42T330 0H30V86L120 116L97 83V620L121 585L30 616V702L276 707H352ZM338 124Q364 124 391 130T441 159T478 229T492
357Q492 435 479 481T444 548T397 576T348 583H245L271 609V98L245 124H338Z" />
<glyph unicode="&#xd1;" horiz-adv-x="762" d="M467 702L744 707V621L654 586L677 621V0H477L216 524H240V83L215 117L307 86V0H30V86L122 117L97 83V620L113 589L30 616V702L303 707L559 195H534V620L559 586L467 616V702ZM262 776L193 807Q213 875 241 905T309
936Q336 936 363 925T415 903T460 892Q478 892 492 903T521 938L592 908Q571 839 540 809T467 778Q441 778 414 789T362 810T318 821Q302 821 290 810T262 776Z" />
<glyph unicode="&#xd2;" horiz-adv-x="726" d="M348 -13Q248 -13 178 27T70 148T32 343Q32 437 56 507T124 625T231 696T371 720Q447 720 507 697T609 629T673 518T695 368Q695 250 653 165T533 33T348 -13ZM360 119Q404 119 437 140T489 214T508 360Q508 446
491 496T442 567T363 588Q319 588 287 568T237 495T219 349Q219 265 235 215T282 142T360 119ZM480 754L216 854L281 980L524 846L480 754Z" />
<glyph unicode="&#xd3;" horiz-adv-x="726" d="M348 -13Q248 -13 178 27T70 148T32 343Q32 437 56 507T124 625T231 696T371 720Q447 720 507 697T609 629T673 518T695 368Q695 250 653 165T533 33T348 -13ZM360 119Q404 119 437 140T489 214T508 360Q508 446
491 496T442 567T363 588Q319 588 287 568T237 495T219 349Q219 265 235 215T282 142T360 119ZM265 754L218 845L464 980L526 854L265 754Z" />
<glyph unicode="&#xd4;" horiz-adv-x="726" d="M348 -13Q248 -13 178 27T70 148T32 343Q32 437 56 507T124 625T231 696T371 720Q447 720 507 697T609 629T673 518T695 368Q695 250 653 165T533 33T348 -13ZM360 119Q404 119 437 140T489 214T508 360Q508 446
491 496T442 567T363 588Q319 588 287 568T237 495T219 349Q219 265 235 215T282 142T360 119ZM218 750L164 816L312 952L408 961L569 816L513 750L303 876L421 874L218 750Z" />
<glyph unicode="&#xd5;" horiz-adv-x="726" d="M348 -13Q248 -13 178 27T70 148T32 343Q32 437 56 507T124 625T231 696T371 720Q447 720 507 697T609 629T673 518T695 368Q695 250 653 165T533 33T348 -13ZM360 119Q404 119 437 140T489 214T508 360Q508 446
491 496T442 567T363 588Q319 588 287 568T237 495T219 349Q219 265 235 215T282 142T360 119ZM236 776L167 807Q187 875 215 905T283 936Q310 936 337 925T389 903T434 892Q452 892 466 903T495 938L566 908Q545 839 514 809T441 778Q415 778 388 789T336 810T292
821Q276 821 264 810T236 776Z" />
<glyph unicode="&#xd6;" horiz-adv-x="726" d="M348 -13Q248 -13 178 27T70 148T32 343Q32 437 56 507T124 625T231 696T371 720Q447 720 507 697T609 629T673 518T695 368Q695 250 653 165T533 33T348 -13ZM360 119Q404 119 437 140T489 214T508 360Q508 446
491 496T442 567T363 588Q319 588 287 568T237 495T219 349Q219 265 235 215T282 142T360 119ZM481 759Q443 759 422 781T400 844Q400 884 423 907T481 930Q520 930 541 907T563 844Q563 804 539 782T481 759ZM250 759Q212 759 192 781T170 844Q169 884 192 907T250
930Q288 930 310 907T332 844Q332 804 308 782T250 759Z" />
<glyph unicode="&#xd7;" horiz-adv-x="496" d="M115 129L26 218L177 368L179 329L25 483L116 573L270 419L230 421L381 572L470 484L318 333L316 372L470 218L380 128L226 282L265 280L115 129Z" />
<glyph unicode="&#xd8;" horiz-adv-x="730" d="M574 785L662 733L584 610L560 579L254 94L245 72L149 -81L61 -28L156 122L173 141L489 641L494 659L574 785ZM350 -13Q251 -13 180 27T72 148T35 343Q35 437 58 507T127 625T234 696T373 720Q450 720 510 697T611
629T675 518T697 368Q697 250 655 165T535 33T350 -13ZM363 119Q407 119 440 140T491 214T510 360Q510 446 494 496T445 567T365 588Q321 588 289 568T240 495T222 349Q222 265 238 215T285 142T363 119Z" />
<glyph unicode="&#xd9;" horiz-adv-x="739" d="M419 702L726 707V621L641 587L659 629V280Q659 223 648 177T614 95T555 36T473 -1T364 -13Q279 -13 225 7T141 62T99 134T83 207T80 266V629L99 588L13 616V702L321 707V621L238 587L254 629V266Q254 239 256 217T265
176T283 145T316 126T367 119Q398 119 418 126T452 147T473 180T483 225T485 280V629L500 590L419 616V702ZM486 754L222 854L287 980L530 846L486 754Z" />
<glyph unicode="&#xda;" horiz-adv-x="739" d="M419 702L726 707V621L641 587L659 629V280Q659 223 648 177T614 95T555 36T473 -1T364 -13Q279 -13 225 7T141 62T99 134T83 207T80 266V629L99 588L13 616V702L321 707V621L238 587L254 629V266Q254 239 256 217T265
176T283 145T316 126T367 119Q398 119 418 126T452 147T473 180T483 225T485 280V629L500 590L419 616V702ZM271 754L224 845L470 980L532 854L271 754Z" />
<glyph unicode="&#xdb;" horiz-adv-x="739" d="M419 702L726 707V621L641 587L659 629V280Q659 223 648 177T614 95T555 36T473 -1T364 -13Q279 -13 225 7T141 62T99 134T83 207T80 266V629L99 588L13 616V702L321 707V621L238 587L254 629V266Q254 239 256 217T265
176T283 145T316 126T367 119Q398 119 418 126T452 147T473 180T483 225T485 280V629L500 590L419 616V702ZM224 750L170 816L318 952L414 961L575 816L519 750L309 876L427 874L224 750Z" />
<glyph unicode="&#xdc;" horiz-adv-x="739" d="M419 702L726 707V621L641 587L659 629V280Q659 223 648 177T614 95T555 36T473 -1T364 -13Q279 -13 225 7T141 62T99 134T83 207T80 266V629L99 588L13 616V702L321 707V621L238 587L254 629V266Q254 239 256 217T265
176T283 145T316 126T367 119Q398 119 418 126T452 147T473 180T483 225T485 280V629L500 590L419 616V702ZM487 759Q449 759 428 781T406 844Q406 884 429 907T487 930Q526 930 547 907T569 844Q569 804 545 782T487 759ZM256 759Q218 759 198 781T176 844Q175
884 198 907T256 930Q294 930 316 907T338 844Q338 804 314 782T256 759Z" />
<glyph unicode="&#xdd;" horiz-adv-x="651" d="M165 0V86L258 117L235 83V279L250 222L44 614L75 588L2 616V702L291 707V621L211 594L224 623L353 341H321L453 616L465 587L382 616V702L649 707V621L575 594L606 619L397 222L409 279V83L386 117L479 86V0H165ZM229
754L182 845L428 980L490 854L229 754Z" />
<glyph unicode="&#xde;" horiz-adv-x="607" d="M30 0V86L118 116L97 83V620L118 586L30 616V702L338 707V621L252 584L271 617V528L245 558H376Q479 558 534 514T589 372Q589 261 521 208T337 155H245L271 185V84L249 116L354 86V0H30ZM271 248L245 275H301Q332
275 357 281T399 305T415 361Q415 395 402 411T366 433T317 439H245L271 465V248Z" />
<glyph unicode="&#xdf;" horiz-adv-x="720" d="M484 415Q484 394 501 380T544 354T600 327T656 293T698 243T715 170Q715 106 685 66T604 6T489 -13Q449 -13 407 -6T320 14L326 169L429 168L442 82L423 111Q438 103 457 99T491 94Q509 94 523 99T545 116T554 147Q554
168 538 184T495 214T440 244T384 278T342 325T325 392Q325 427 337 450T367 490T403 523T433 555T446 597Q446 619 435 635T403 662T355 672Q314 672 286 649T258 578V0H28V86L110 113L89 87V432L110 421H24V511L106 536L89 514V563Q89 628 111 671T170 741T257
778T359 790Q433 790 489 770T577 712T610 615Q610 578 597 553T566 509T529 477T497 449T484 415Z" />
<glyph unicode="&#xe0;" horiz-adv-x="568" d="M500 84L477 118L561 86V0L367 -9L346 86L356 83Q320 35 275 11T178 -13Q109 -13 67 30T24 150Q24 206 48 240T121 291T241 307H339L330 297V348Q330 390 311 408T251 427Q233 427 212 424T166 414L181 431L166 354H62L54
511Q127 531 187 540T298 550Q398 550 449 509T500 379V84ZM194 169Q194 137 209 122T247 106Q268 106 291 118T336 152L330 129V236L340 225H269Q227 225 211 212T194 169ZM219 855L441 685L378 599L133 739L219 855Z" />
<glyph unicode="&#xe1;" horiz-adv-x="568" d="M500 84L477 118L561 86V0L367 -9L346 86L356 83Q320 35 275 11T178 -13Q109 -13 67 30T24 150Q24 206 48 240T121 291T241 307H339L330 297V348Q330 390 311 408T251 427Q233 427 212 424T166 414L181 431L166 354H62L54
511Q127 531 187 540T298 550Q398 550 449 509T500 379V84ZM194 169Q194 137 209 122T247 106Q268 106 291 118T336 152L330 129V236L340 225H269Q227 225 211 212T194 169ZM207 599L150 680L370 852L454 739L207 599Z" />
<glyph unicode="&#xe2;" horiz-adv-x="568" d="M500 84L477 118L561 86V0L367 -9L346 86L356 83Q320 35 275 11T178 -13Q109 -13 67 30T24 150Q24 206 48 240T121 291T241 307H339L330 297V348Q330 390 311 408T251 427Q233 427 212 424T166 414L181 431L166 354H62L54
511Q127 531 187 540T298 550Q398 550 449 509T500 379V84ZM194 169Q194 137 209 122T247 106Q268 106 291 118T336 152L330 129V236L340 225H269Q227 225 211 212T194 169ZM135 615L81 677L229 826L324 836L484 677L428 615L219 753L338 752L135 615Z" />
<glyph unicode="&#xe3;" horiz-adv-x="568" d="M500 84L477 118L561 86V0L367 -9L346 86L356 83Q320 35 275 11T178 -13Q109 -13 67 30T24 150Q24 206 48 240T121 291T241 307H339L330 297V348Q330 390 311 408T251 427Q233 427 212 424T166 414L181 431L166 354H62L54
511Q127 531 187 540T298 550Q398 550 449 509T500 379V84ZM194 169Q194 137 209 122T247 106Q268 106 291 118T336 152L330 129V236L340 225H269Q227 225 211 212T194 169ZM357 637Q328 637 305 649T260 672T215 684Q196 684 181 673T150 638L79 668Q100 736 132
771T205 806Q235 806 258 794T304 771T348 759Q368 759 383 771T414 805L484 777Q463 708 431 673T357 637Z" />
<glyph unicode="&#xe4;" horiz-adv-x="568" d="M500 84L477 118L561 86V0L367 -9L346 86L356 83Q320 35 275 11T178 -13Q109 -13 67 30T24 150Q24 206 48 240T121 291T241 307H339L330 297V348Q330 390 311 408T251 427Q233 427 212 424T166 414L181 431L166 354H62L54
511Q127 531 187 540T298 550Q398 550 449 509T500 379V84ZM194 169Q194 137 209 122T247 106Q268 106 291 118T336 152L330 129V236L340 225H269Q227 225 211 212T194 169ZM397 614Q359 614 338 636T316 699Q316 739 339 762T397 785Q436 785 457 762T479 699Q479
659 455 637T397 614ZM166 614Q128 614 108 636T86 699Q85 739 108 762T166 785Q204 785 226 762T248 699Q248 659 224 637T166 614Z" />
<glyph unicode="&#xe5;" horiz-adv-x="568" d="M500 84L477 118L561 86V0L367 -9L346 86L356 83Q320 35 275 11T178 -13Q109 -13 67 30T24 150Q24 206 48 240T121 291T241 307H339L330 297V348Q330 390 311 408T251 427Q233 427 212 424T166 414L181 431L166 354H62L54
511Q127 531 187 540T298 550Q398 550 449 509T500 379V84ZM194 169Q194 137 209 122T247 106Q268 106 291 118T336 152L330 129V236L340 225H269Q227 225 211 212T194 169ZM281 599Q233 599 200 617T150 665T133 732Q133 769 150 799T201 848T284 867Q332 867
364 850T414 802T431 734Q431 698 414 667T364 618T281 599ZM281 675Q307 675 319 691T331 734Q331 759 320 775T282 791Q257 791 245 775T233 732Q233 707 244 691T281 675Z" />
<glyph unicode="&#xe6;" horiz-adv-x="850" d="M62 358L54 511Q124 531 182 540T285 550Q345 550 382 534T433 482L443 463L429 476Q459 512 504 531T601 550Q707 550 766 487T825 309Q825 284 823 262T817 225H492L501 246L502 234Q507 177 537 144T617 111Q680
111 761 157L817 68Q760 29 699 8T576 -13Q506 -13 453 18T374 107L415 106Q372 45 313 16T197 -14Q151 -14 112 4T48 59T24 149Q24 231 76 271T236 312H341L331 298V348Q331 389 312 408T251 428Q234 428 213 425T165 415L179 431L165 358H62ZM335 135Q333 160
332 185T331 240L341 225H272Q229 225 212 214T194 171Q194 139 210 123T253 106Q273 106 296 116T342 148L335 135ZM500 294L489 312H660L650 302Q650 373 635 402T583 431Q542 431 522 398T500 294Z" />
<glyph unicode="&#xe7;" horiz-adv-x="518" d="M273 -13Q202 -13 145 19T54 114T21 265Q21 347 45 401T110 489T200 536T301 550Q354 550 404 538T484 512L480 355H373L357 431L370 422Q359 426 341 428T306 431Q267 431 243 412T209 357T198 274Q198 220 212
184T252 129T312 111Q342 111 376 123T451 159L506 73Q449 29 391 8T273 -13ZM279 -264Q249 -264 219 -258T161 -238L192 -158Q212 -165 236 -170T278 -175Q297 -175 309 -169T321 -149Q321 -137 306 -130T267 -118T216 -112L223 0H322V-44Q380 -50 410 -77T441
-145Q441 -185 418 -211T359 -251T279 -264Z" />
<glyph unicode="&#xe8;" horiz-adv-x="551" d="M274 -13Q199 -13 142 17T54 108T23 258Q23 350 56 415T150 515T295 550Q376 550 427 519T501 434T525 311Q525 292 524 272T517 231H162V324H374L350 307Q351 346 345 373T324 415T281 430Q248 430 230 410T205
356T197 284Q197 236 207 197T243 135T315 111Q346 111 383 122T462 156L518 68Q458 27 396 7T274 -13ZM220 855L442 685L379 599L134 739L220 855Z" />
<glyph unicode="&#xe9;" horiz-adv-x="551" d="M274 -13Q199 -13 142 17T54 108T23 258Q23 350 56 415T150 515T295 550Q376 550 427 519T501 434T525 311Q525 292 524 272T517 231H162V324H374L350 307Q351 346 345 373T324 415T281 430Q248 430 230 410T205
356T197 284Q197 236 207 197T243 135T315 111Q346 111 383 122T462 156L518 68Q458 27 396 7T274 -13ZM208 599L151 680L371 852L455 739L208 599Z" />
<glyph unicode="&#xea;" horiz-adv-x="551" d="M274 -13Q199 -13 142 17T54 108T23 258Q23 350 56 415T150 515T295 550Q376 550 427 519T501 434T525 311Q525 292 524 272T517 231H162V324H374L350 307Q351 346 345 373T324 415T281 430Q248 430 230 410T205
356T197 284Q197 236 207 197T243 135T315 111Q346 111 383 122T462 156L518 68Q458 27 396 7T274 -13ZM136 615L82 677L230 826L325 836L485 677L429 615L220 753L339 752L136 615Z" />
<glyph unicode="&#xeb;" horiz-adv-x="551" d="M274 -13Q199 -13 142 17T54 108T23 258Q23 350 56 415T150 515T295 550Q376 550 427 519T501 434T525 311Q525 292 524 272T517 231H162V324H374L350 307Q351 346 345 373T324 415T281 430Q248 430 230 410T205
356T197 284Q197 236 207 197T243 135T315 111Q346 111 383 122T462 156L518 68Q458 27 396 7T274 -13ZM398 614Q360 614 339 636T317 699Q317 739 340 762T398 785Q437 785 458 762T480 699Q480 659 456 637T398 614ZM167 614Q129 614 109 636T87 699Q86 739 109
762T167 785Q205 785 227 762T249 699Q249 659 225 637T167 614Z" />
<glyph unicode="&#xec;" horiz-adv-x="328" d="M256 97L245 111L317 86V0H25V86L97 111L86 97V434L96 424L25 448V533L256 541V97ZM358 855L580 685L517 599L272 739L358 855Z" />
<glyph unicode="&#xed;" horiz-adv-x="328" d="M256 97L245 111L317 86V0H25V86L97 111L86 97V434L96 424L25 448V533L256 541V97ZM351 599L294 680L514 852L598 739L351 599Z" />
<glyph unicode="&#xee;" horiz-adv-x="328" d="M47 615L-11 677L114 826L210 836L347 677L287 615L105 753L224 752L47 615ZM256 97L245 111L317 86V0H25V86L97 111L86 97V434L96 424L25 448V533L256 541V97Z" />
<glyph unicode="&#xef;" horiz-adv-x="328" d="M260 614Q225 614 205 636T184 699Q183 739 206 762T260 785Q296 785 317 762T338 699Q338 659 315 637T260 614ZM51 614Q16 614 -4 636T-25 699Q-26 739 -3 762T51 785Q87 785 108 762T129 699Q129 659 106 637T51
614ZM256 97L245 111L317 86V0H25V86L97 111L86 97V434L96 424L25 448V533L256 541V97Z" />
<glyph unicode="&#xf0;" horiz-adv-x="581" d="M270 -13Q186 -13 130 19T46 107T18 237Q18 319 49 375T132 461T245 491Q295 491 338 471T407 407L391 414Q379 501 341 557T242 641T103 671L116 790Q230 790 312 750T447 643T525 491T551 318Q551 249 535 189T486
84T399 13T270 -13ZM282 106Q308 106 329 120T362 165T374 249Q374 321 351 349T286 378Q261 378 240 366T207 325T195 241Q195 166 219 136T282 106ZM210 534L157 602L425 794L477 725L210 534Z" />
<glyph unicode="&#xf1;" horiz-adv-x="649" d="M25 0V86L106 113L86 89V447L106 420L25 448V533L218 542L239 448L218 455Q266 503 320 526T423 550Q490 550 536 507T581 376V89L567 112L642 86V0H359V86L430 111L412 86V341Q412 383 394 402T347 422Q324 422
298 410T245 375L256 398V86L241 110L308 86V0H25ZM409 637Q380 637 357 649T312 672T267 684Q248 684 233 673T202 638L131 668Q152 736 184 771T257 806Q287 806 310 794T356 771T400 759Q420 759 435 771T466 805L536 777Q515 708 483 673T409 637Z" />
<glyph unicode="&#xf2;" horiz-adv-x="577" d="M296 550Q420 550 487 480T555 278Q555 187 522 122T426 22T278 -13Q155 -13 89 57T22 259Q22 351 54 416T148 515T296 550ZM289 431Q241 431 220 393T199 267Q199 180 219 143T286 106Q319 106 339 123T368 177T378
271Q378 357 357 394T289 431ZM225 855L447 685L384 599L139 739L225 855Z" />
<glyph unicode="&#xf3;" horiz-adv-x="577" d="M296 550Q420 550 487 480T555 278Q555 187 522 122T426 22T278 -13Q155 -13 89 57T22 259Q22 351 54 416T148 515T296 550ZM289 431Q241 431 220 393T199 267Q199 180 219 143T286 106Q319 106 339 123T368 177T378
271Q378 357 357 394T289 431ZM214 599L157 680L377 852L461 739L214 599Z" />
<glyph unicode="&#xf4;" horiz-adv-x="577" d="M296 550Q420 550 487 480T555 278Q555 187 522 122T426 22T278 -13Q155 -13 89 57T22 259Q22 351 54 416T148 515T296 550ZM289 431Q241 431 220 393T199 267Q199 180 219 143T286 106Q319 106 339 123T368 177T378
271Q378 357 357 394T289 431ZM141 615L87 677L235 826L330 836L490 677L434 615L225 753L344 752L141 615Z" />
<glyph unicode="&#xf5;" horiz-adv-x="577" d="M296 550Q420 550 487 480T555 278Q555 187 522 122T426 22T278 -13Q155 -13 89 57T22 259Q22 351 54 416T148 515T296 550ZM289 431Q241 431 220 393T199 267Q199 180 219 143T286 106Q319 106 339 123T368 177T378
271Q378 357 357 394T289 431ZM364 637Q335 637 312 649T267 672T222 684Q203 684 188 673T157 638L86 668Q107 736 139 771T212 806Q242 806 265 794T311 771T355 759Q375 759 390 771T421 805L491 777Q470 708 438 673T364 637Z" />
<glyph unicode="&#xf6;" horiz-adv-x="577" d="M296 550Q420 550 487 480T555 278Q555 187 522 122T426 22T278 -13Q155 -13 89 57T22 259Q22 351 54 416T148 515T296 550ZM289 431Q241 431 220 393T199 267Q199 180 219 143T286 106Q319 106 339 123T368 177T378
271Q378 357 357 394T289 431ZM403 614Q365 614 344 636T322 699Q322 739 345 762T403 785Q442 785 463 762T485 699Q485 659 461 637T403 614ZM172 614Q134 614 114 636T92 699Q91 739 114 762T172 785Q210 785 232 762T254 699Q254 659 230 637T172 614Z" />
<glyph unicode="&#xf7;" horiz-adv-x="523" d="M495 410V291H28V410H495ZM168 153Q168 195 196 219T262 244Q305 244 330 220T355 153Q355 112 327 88T262 63Q219 63 194 87T168 153ZM168 547Q168 589 196 613T262 638Q305 638 330 614T355 547Q355 506 327 482T262
457Q219 457 194 481T168 547Z" />
<glyph unicode="&#xf8;" horiz-adv-x="583" d="M471 642L553 595L465 455L438 432L212 73L204 40L115 -103L31 -54L123 91L150 115L380 481L386 508L471 642ZM300 550Q424 550 491 480T559 278Q559 187 526 122T430 22T282 -13Q159 -13 93 57T27 259Q27 351 59
416T153 515T300 550ZM293 431Q246 431 225 393T203 267Q203 180 224 143T291 106Q324 106 343 123T373 177T383 271Q383 357 362 394T293 431Z" />
<glyph unicode="&#xf9;" horiz-adv-x="637" d="M226 -13Q159 -13 113 31T67 165V444L82 421L6 448V533L237 541V192Q237 153 254 134T301 115Q323 115 349 126T403 162L393 134V448L407 421L332 448V533L563 542V87L543 115L623 86V0L430 -9L408 89L431 82Q382
34 329 11T226 -13ZM245 855L467 685L404 599L159 739L245 855Z" />
<glyph unicode="&#xfa;" horiz-adv-x="637" d="M226 -13Q159 -13 113 31T67 165V444L82 421L6 448V533L237 541V192Q237 153 254 134T301 115Q323 115 349 126T403 162L393 134V448L407 421L332 448V533L563 542V87L543 115L623 86V0L430 -9L408 89L431 82Q382
34 329 11T226 -13ZM234 599L177 680L397 852L481 739L234 599Z" />
<glyph unicode="&#xfb;" horiz-adv-x="637" d="M226 -13Q159 -13 113 31T67 165V444L82 421L6 448V533L237 541V192Q237 153 254 134T301 115Q323 115 349 126T403 162L393 134V448L407 421L332 448V533L563 542V87L543 115L623 86V0L430 -9L408 89L431 82Q382
34 329 11T226 -13ZM162 615L108 677L256 826L351 836L511 677L455 615L246 753L365 752L162 615Z" />
<glyph unicode="&#xfc;" horiz-adv-x="637" d="M226 -13Q159 -13 113 31T67 165V444L82 421L6 448V533L237 541V192Q237 153 254 134T301 115Q323 115 349 126T403 162L393 134V448L407 421L332 448V533L563 542V87L543 115L623 86V0L430 -9L408 89L431 82Q382
34 329 11T226 -13ZM423 614Q385 614 364 636T342 699Q342 739 365 762T423 785Q462 785 483 762T505 699Q505 659 481 637T423 614ZM192 614Q154 614 134 636T112 699Q111 739 134 762T192 785Q230 785 252 762T274 699Q274 659 250 637T192 614Z" />
<glyph unicode="&#xfd;" horiz-adv-x="569" d="M5 -235L20 -116Q38 -119 53 -120T82 -121Q123 -121 149 -106T195 -59T236 27L229 -28L35 445L49 431L-6 447V532L257 542V456L197 436L205 450L321 100L280 109L378 446L386 431L326 447V532L573 542V456L513 435L535
448L375 3Q353 -57 327 -103T268 -180T192 -227T93 -243Q53 -243 5 -235ZM211 599L154 680L374 852L458 739L211 599Z" />
<glyph unicode="&#xfe;" horiz-adv-x="597" d="M0 -230V-144L81 -114L61 -142V683L83 655L0 687V772L231 782V473L193 465Q240 507 284 528T377 550Q436 550 480 520T549 430T574 284Q574 185 541 119T447 20T306 -14Q283 -14 260 -11T210 -2L231 9V-142L215 -117L302
-144V-230H0ZM283 106Q345 106 371 149T398 266Q398 315 388 351T358 407T309 427Q287 427 263 415T211 378L231 407V96L211 117Q251 106 283 106Z" />
<glyph unicode="&#xff;" horiz-adv-x="569" d="M5 -235L20 -116Q38 -119 53 -120T82 -121Q123 -121 149 -106T195 -59T236 27L229 -28L35 445L49 431L-6 447V532L257 542V456L197 436L205 450L321 100L280 109L378 446L386 431L326 447V532L573 542V456L513 435L535
448L375 3Q353 -57 327 -103T268 -180T192 -227T93 -243Q53 -243 5 -235ZM401 614Q363 614 342 636T320 699Q320 739 343 762T401 785Q440 785 461 762T483 699Q483 659 459 637T401 614ZM170 614Q132 614 112 636T90 699Q89 739 112 762T170 785Q208 785 230 762T252
699Q252 659 228 637T170 614Z" />
<glyph unicode="&#x2013;" horiz-adv-x="600" d="M546 357V229H54V357H546Z" />
<glyph unicode="&#x2014;" horiz-adv-x="850" d="M796 353V225H54V353H796Z" />
<glyph unicode="&#x2018;" horiz-adv-x="236" d="M186 536Q186 494 161 473T103 452Q71 452 44 475T17 546Q17 591 47 652T153 792L208 756Q177 701 166 674T154 633Q154 619 162 606T178 577T186 536Z" />
<glyph unicode="&#x2019;" horiz-adv-x="236" d="M39 711Q39 753 64 774T121 796Q154 796 181 773T208 701Q208 658 178 596T72 456L17 492Q49 547 60 574T71 615Q71 629 63 642T47 671T39 711Z" />
<glyph unicode="&#x201a;" horiz-adv-x="236" d="M50 68Q50 110 75 131T132 153Q165 153 192 130T219 58Q219 15 189 -47T83 -187L28 -151Q60 -96 71 -69T82 -28Q82 -14 74 -1T58 28T50 68Z" />
<glyph unicode="&#x201c;" horiz-adv-x="443" d="M186 548Q186 505 161 484T103 463Q71 463 44 486T17 557Q17 602 47 663T153 803L208 767Q177 713 166 686T154 644Q154 630 162 617T178 588T186 548ZM393 548Q393 505 368 484T311 463Q279 463 252 486T224 557Q224
602 254 663T361 803L416 767Q384 713 373 686T362 644Q362 630 370 617T385 588T393 548Z" />
<glyph unicode="&#x201d;" horiz-adv-x="443" d="M258 711Q258 753 283 774T340 796Q373 796 400 773T427 701Q427 658 397 596T291 456L236 492Q268 547 279 574T290 615Q290 629 282 642T266 671T258 711ZM50 711Q50 753 75 774T132 796Q165 796 192 773T219
701Q219 658 189 596T83 456L28 492Q60 547 71 574T82 615Q82 629 74 642T58 671T50 711Z" />
<glyph unicode="&#x201e;" horiz-adv-x="443" d="M258 68Q258 110 283 131T340 153Q373 153 400 130T427 58Q427 15 397 -47T291 -187L236 -151Q268 -96 279 -69T290 -28Q290 -14 282 -1T266 28T258 68ZM50 68Q50 110 75 131T132 153Q165 153 192 130T219 58Q219
15 189 -47T83 -187L28 -151Q60 -96 71 -69T82 -28Q82 -14 74 -1T58 28T50 68Z" />
<glyph unicode="&#x2022;" horiz-adv-x="447" d="M40 303Q40 358 65 398T133 461T224 484Q280 484 321 461T384 398T407 303Q407 249 382 209T315 146T224 123Q138 123 89 172T40 303Z" />
<glyph unicode="&#x2039;" horiz-adv-x="320" d="M209 38L40 228V310L211 501L290 442L158 238V302L288 101L209 38Z" />
<glyph unicode="&#x203a;" horiz-adv-x="320" d="M111 501L280 310V228L110 38L30 97L163 300V236L32 438L111 501Z" />
</font>
</defs>
</svg>
